<?xml version="1.0" encoding="utf-8"?>
<!-- Generator: Adobe Illustrator 19.2.0, SVG Export Plug-In . SVG Version: 6.00 Build 0)  -->
<!DOCTYPE svg PUBLIC "-//W3C//DTD SVG 1.1//EN" "http://www.w3.org/Graphics/SVG/1.1/DTD/svg11.dtd">
<svg version="1.1" id="Layer_1" xmlns="http://www.w3.org/2000/svg" xmlns:xlink="http://www.w3.org/1999/xlink" x="0px" y="0px"
	 width="314px" height="259px" viewBox="0 0 314 259" enable-background="new 0 0 314 259" xml:space="preserve">
<g>
	<g>
		<path fill="#454545" d="M43.084,243.68851H23.542c-1.002,0-1.81641-0.81451-1.81641-1.81841l-0.002-16.96581
			c-1.125-0.89059-1.789-2.25389-1.789-3.6953c0-0.6485,0.1308-1.2793,0.3906-1.875c1.5996-4.16409,7.2939-4.5137,12.9883-4.5137
			c5.6933,0,11.3867,0.34961,12.997,4.5332c0.2491,0.57809,0.3799,1.209,0.3799,1.8555c0,1.44141-0.664,2.8047-1.789,3.6953
			v16.96581C44.90139,242.87399,44.08589,243.68851,43.084,243.68851z M33.31349,215.8203
			c-6.52349,0-10.8174,0.65041-12.06349,3.89261c-0.21191,0.4883-0.31541,0.98439-0.31541,1.49609
			c0,1.20509,0.5898,2.3398,1.5771,3.0351c0.1328,0.09381,0.2119,0.24611,0.2119,0.4102l0.002,17.21581
			c0,0.4512,0.3672,0.81841,0.81641,0.81841h19.542c0.45019,0,0.81739-0.3672,0.81739-0.81841V224.6543
			c0-0.16409,0.0791-0.31639,0.2119-0.4102c0.9873-0.6953,1.5771-1.83,1.5771-3.0351c0-0.5098-0.1035-1.0078-0.3066-1.4785
			C44.12889,216.4707,39.83589,215.8203,33.31349,215.8203z"/>
	</g>
	<g>
		<g>
			<path fill="#454545" d="M279.19138,96.1108h-1.72849c-0.2764,0-0.5-0.2236-0.5-0.5V80.6792
				c-1.5274-0.7485-1.74222-1.1553-1.74222-1.4556c0.01172-0.331,0.27542-7.7295,0.71002-10.9189
				c0.45798-3.3853,2.87979-5.041,2.98239-5.1099c0.1543-0.1025,0.35251-0.1118,0.5137-0.0254
				c0.16299,0.0869,0.26459,0.2564,0.26459,0.441v32.0004C279.69138,95.8872,279.46777,96.1108,279.19138,96.1108z
				 M277.96289,95.1108h0.72849V64.7285c-0.6582,0.7066-1.53119,1.9439-1.77048,3.7105
				c-0.3916,2.88229-0.65231,9.5078-0.69431,10.6377c0.12399,0.1123,0.48529,0.3842,1.44818,0.8349
				c0.17581,0.0821,0.28812,0.2588,0.28812,0.45271V95.1108z"/>
		</g>
		<g>
			<path fill="#454545" d="M289.09378,96.1108h-0.85941c-0.27637,0-0.5-0.2236-0.5-0.5c0-0.2763,0.22363-0.5,0.5-0.5h0.35941
				V75.4404c0-0.5454,0.32712-0.8403,0.59082-1.0776c0.3017-0.273,0.56339-0.5083,0.56339-1.2329V70.6768
				c0-0.27641,0.22369-0.5,0.5-0.5c0.2764,0,0.5,0.22359,0.5,0.5v2.45309c0,1.1694-0.53799,1.6543-0.8945,1.9756
				c-0.2207,0.1992-0.2597,0.2495-0.2597,0.3349v20.1704C289.59378,95.8872,289.37009,96.1108,289.09378,96.1108z"/>
		</g>
		<g>
			<path fill="#454545" d="M288.23438,71.1768c-0.27637,0-0.5-0.2237-0.5-0.5v-6.6914c0-0.2764,0.22363-0.5,0.5-0.5
				c0.27631,0,0.5,0.2236,0.5,0.5v6.6914C288.73438,70.9531,288.51068,71.1768,288.23438,71.1768z"/>
		</g>
		<g>
			<path fill="#454545" d="M290.24799,71.1768c-0.27631,0-0.5-0.2237-0.5-0.5v-6.6914c0-0.2764,0.22369-0.5,0.5-0.5
				c0.2764,0,0.5,0.2236,0.5,0.5v6.6914C290.74799,70.9531,290.52438,71.1768,290.24799,71.1768z"/>
		</g>
		<g>
			<path fill="#454545" d="M288.23438,96.1108h-0.86139c-0.27631,0-0.5-0.2236-0.5-0.5V75.4404
				c0-0.0854-0.03897-0.1357-0.2597-0.3349c-0.35651-0.3213-0.8945-0.8062-0.8945-1.9756V70.6768c0-0.27641,0.2236-0.5,0.5-0.5
				c0.27631,0,0.5,0.22359,0.5,0.5v2.45309c0,0.7246,0.26172,0.9599,0.56342,1.2329c0.2637,0.2373,0.59079,0.5322,0.59079,1.0776
				v19.6704h0.36139c0.27631,0,0.5,0.2237,0.5,0.5C288.73438,95.8872,288.51068,96.1108,288.23438,96.1108z"/>
		</g>
		<g>
			<path fill="#454545" d="M286.21878,71.1768c-0.2764,0-0.5-0.2237-0.5-0.5v-6.6914c0-0.2764,0.2236-0.5,0.5-0.5
				c0.27631,0,0.5,0.2236,0.5,0.5v6.6914C286.71878,70.9531,286.49509,71.1768,286.21878,71.1768z"/>
		</g>
		<g>
			<path fill="#454545" d="M289.24219,72.1855c-0.83112,0-1.50781-0.6767-1.50781-1.5087c0-0.27641,0.22363-0.5,0.5-0.5
				c0.27631,0,0.5,0.22359,0.5,0.5c0,0.28069,0.22751,0.5087,0.50781,0.5087c0.2793,0,0.5058-0.228,0.5058-0.5087
				c0-0.27641,0.22369-0.5,0.5-0.5c0.2764,0,0.5,0.22359,0.5,0.5C290.74799,71.5088,290.0723,72.1855,289.24219,72.1855z"/>
		</g>
		<g>
			<path fill="#454545" d="M287.22659,72.1855c-0.83112,0-1.50781-0.6767-1.50781-1.5087c0-0.27641,0.2236-0.5,0.5-0.5
				c0.27631,0,0.5,0.22359,0.5,0.5c0,0.28069,0.22751,0.5087,0.50781,0.5087c0.28018,0,0.50778-0.228,0.50778-0.5087
				c0-0.27641,0.22363-0.5,0.5-0.5c0.27631,0,0.5,0.22359,0.5,0.5C288.73438,71.5088,288.05759,72.1855,287.22659,72.1855z"/>
		</g>
	</g>
	<g>
		<g>
			<path fill="#454545" d="M86.93069,45.9458c0,0,0,0-0.00101,0c-0.5664,0-1.1699-0.0425-1.8252-0.0894
				c-1.4766-0.1044-3.4932-0.1044-4.9697,0c-3.2393,0.232-5.34769,0.2681-7.80179-3.9868
				c-5.52341-9.581-4.59281-15.2104-2.83891-18.2461c1.7764-3.0732,4.74519-4.2187,6.2002-4.2187
				c2.167,0,3.7412,0.3061,5.0069,0.5522c0.7802,0.1519,1.3974,0.272,1.9189,0.272c0.5205,0,1.1367-0.1201,1.917-0.2715
				c1.26559-0.2466,2.8399-0.5527,5.0068-0.5527c1.45511,0,4.4249,1.1455,6.2002,4.2192
				c1.75391,3.0357,2.6846,8.6646-2.8388,18.2456C90.94819,45.2632,89.168,45.9458,86.93069,45.9458z M82.62009,44.7446
				c0.9444,0,1.8008,0.0611,2.55569,0.1148c0.6289,0.0444,1.209,0.0864,1.7539,0.0864h0.00101c1.97559,0,3.375-0.5703,5.1074-3.5762
				c5.28609-9.167,4.46291-14.438,2.8408-17.2451c-1.624-2.8105-4.29589-3.7197-5.335-3.7197c-2.0703,0-3.5927,0.2964-4.8154,0.5342
				c-0.7998,0.1557-1.4912,0.29-2.1084,0.29c-0.6181,0-1.3096-0.1343-2.11031-0.29c-1.22269-0.2383-2.7452-0.5342-4.8155-0.5342
				c-1.039,0-3.7109,0.9092-5.3339,3.7192c-1.6221,2.8072-2.4463,8.0781,2.8398,17.2461c2.21091,3.8355,3.957,3.6944,6.8633,3.4893
				C80.81929,44.8057,81.67479,44.7446,82.62009,44.7446z"/>
		</g>
		<g>
			<path fill="#454545" d="M82.62009,20.4517c-0.19141,0-0.375-0.1109-0.457-0.2979c-1.6406-3.7119-2.5449-4.1953-5.2285-5.6313
				l0.166-0.4781l0.2363-0.4409c2.8213,1.5098,3.961,2.1192,5.7402,6.146c0.1124,0.2525-0.0019,0.5479-0.2548,0.6597
				C82.75679,20.438,82.68749,20.4517,82.62009,20.4517z"/>
		</g>
	</g>
	<g>
		<g>
			<path fill="#454545" d="M132.98729,94.373c-6.1992,0-10.874-5.0459-10.874-11.7373c0-3.34859,1.1435-7.7446,2.914-11.1987
				c2.1778-4.2485,5.00491-6.58839,7.96-6.58839c2.9541,0,5.7803,2.3399,7.95799,6.58839
				c1.77051,3.45461,2.91411,7.85011,2.91411,11.1987C143.85939,89.3271,139.18549,94.373,132.98729,94.373z M132.98729,65.8486
				c-5.8018,0-9.874,10.8907-9.874,16.78709c0,6.2217,4.1523,10.7373,9.874,10.7373c5.7207,0,9.8721-4.5156,9.8721-10.7373
				C142.85939,76.7393,138.78809,65.8486,132.98729,65.8486z"/>
		</g>
	</g>
	<g>
		<g>
			<path fill="#454545" d="M234.97559,166.8623c-0.10739,0-0.20799-0.03421-0.28909-0.0928
				c-0.21091-0.04291-0.82811-0.0976-1.70601-0.0976c-0.87799,0-1.4942,0.0537-1.7061,0.0976
				c-0.28999,0.20709-0.789-0.02341-0.789-0.4072v-2.2803c0-0.2422,0-0.8847,2.4951-0.8847s2.4951,0.6425,2.4951,0.8847v2.2803
				C235.47559,166.6387,235.252,166.8623,234.97559,166.8623z M232.98048,165.67191c0.65331,0,1.1367,0.01849,1.4951,0.05659
				v-1.3877c-0.2422-0.06441-0.74609-0.14351-1.4951-0.14351c-0.7491,0-1.25299,0.0791-1.4951,0.14351v1.3877
				C231.84378,165.6904,232.32709,165.67191,232.98048,165.67191z"/>
		</g>
		<g>
			<path fill="#454545" d="M233.45409,196.1973c-0.06931,0-0.1387-0.00099-0.209-0.002l-0.2646-0.00189l-0.2657,0.00189
				c-0.52339,0.0078-1.02139,0.01471-1.45599-0.3828l-0.56351,0.05859c-0.1084,0.0088-0.20599,0.0215-0.3017,0.03421
				c-0.4581,0.0576-1.0235,0.1299-1.5069-0.26961c-0.50681-0.4169-0.7744-1.2451-0.86909-2.6855
				c-0.11331-1.7168,0.09369-2.58009,0.27629-3.3418c0.21291-0.8848,0.3965-1.65041,0.0938-3.7002
				c-0.26068-1.77341-0.29099-2.52051-0.29099-2.9287v-7.94431c0-0.45221,0.0244-0.7442,0.07909-0.9463
				c0.1689-0.63091,0.9375-2.2998,1.3916-3.1709l0.10251-0.1973c0.44139-0.84671,1.10739-2.125,1.10739-3.38771v-1.0703
				c0-0.2764,0.22372-0.5,0.5-0.5c0.2764,0,0.5,0.2236,0.5,0.5v1.0703c0,1.50781-0.73428,2.91701-1.22069,3.84961l-0.1015,0.1953
				c-0.47951,0.9209-1.1797,2.4707-1.3145,2.97169c-0.0166,0.06151-0.0439,0.23241-0.0439,0.68561v7.94431
				c0,0.2168,0,0.87689,0.28119,2.78319c0.33011,2.24121,0.1055,3.17581-0.1113,4.0791
				c-0.1738,0.72661-0.35449,1.47751-0.25099,3.043c0.0938,1.43651,0.3584,1.8564,0.5069,1.97951
				c0.1425,0.1171,0.375,0.0947,0.7451,0.0488c0.11029-0.01469,0.2226-0.02831,0.3349-0.0381l0.80179-0.08299
				c0.17281-0.0186,0.34181,0.0537,0.44731,0.19139c0.1601,0.207,0.2666,0.2178,0.84959,0.2119l0.2793-0.00189l0.27831,0.00189
				c0.58009,0.00591,0.68939-0.0049,0.85159-0.21289c0.10541-0.1367,0.28021-0.20801,0.4462-0.1904l0.8125,0.08499
				c0.10161,0.0078,0.21391,0.02141,0.32431,0.0361c0.3681,0.04691,0.60049,0.06931,0.7431-0.0488
				c0.1494-0.1221,0.41409-0.543,0.50879-1.97951c0.1035-1.56549-0.07709-2.31639-0.25189-3.043
				c-0.2168-0.90329-0.44139-1.83789-0.1123-4.0791c0.2802-1.88669,0.2802-2.56149,0.2802-2.78319v-7.94431
				c0-0.35361-0.0136-0.584-0.041-0.68561c-0.13379-0.4971-0.82809-2.03119-1.31349-2.97069l-0.0986-0.18941
				c-0.4883-0.93359-1.22659-2.3457-1.22659-3.85651v-1.0703c0-0.2764,0.22369-0.5,0.49998-0.5c0.27641,0,0.5,0.2236,0.5,0.5v1.0703
				c0,1.26561,0.67001,2.54591,1.1123,3.39261l0.10161,0.1933c0.40239,0.7793,1.21089,2.5049,1.38969,3.1709
				c0.0546,0.1993,0.0761,0.47371,0.0761,0.9454v7.94431c0,0.26559,0,0.97069-0.291,2.92969
				c-0.3008,2.0488-0.11719,2.81351,0.09572,3.6992c0.18259,0.7617,0.39058,1.625,0.27739,3.3418
				c-0.0957,1.4404-0.3643,2.2686-0.87021,2.68651c-0.4834,0.3985-1.0517,0.3262-1.5058,0.2686
				c-0.09669-0.01271-0.19339-0.02541-0.291-0.0332l-0.5752-0.0596C234.32518,196.1563,233.90039,196.1973,233.45409,196.1973z"/>
		</g>
		<g>
			<path fill="#454545" d="M231.27829,166.96291c-0.0244,0-0.0488-0.002-0.0742-0.00591
				c-0.1777-0.02631-0.7187-0.10541-0.7187-0.5947c-0.00099-0.38571,0.50191-0.6143,0.7919-0.4062
				c0.0215,0.00391,0.0459,0.0078,0.0733,0.0117c0.27242,0.03999,0.4619,0.29489,0.42191,0.5674
				C231.73538,166.78419,231.52148,166.96291,231.27829,166.96291z"/>
		</g>
		<g>
			<path fill="#454545" d="M234.68069,166.96291c-0.2442,0-0.45711-0.17871-0.4942-0.4277
				c-0.04001-0.2735,0.1494-0.5274,0.4229-0.5674c0.0273-0.00391,0.0527-0.0078,0.0742-0.0117
				c0.29199-0.209,0.793,0.02139,0.79199,0.4062c0,0.48929-0.543,0.56929-0.72169,0.5947
				C234.72949,166.96091,234.70509,166.96291,234.68069,166.96291z"/>
		</g>
	</g>
	<g>
		<g>
			<path fill="#454545" d="M73.30959,88.0459c-4.2071-0.0005-6.5938-0.8623-7.0948-2.562c-0.67179-2.2769,2.378-5.207,5.1924-7.0249
				l0.1387-0.0894c6.4463-4.1645,6.6982-4.3266,9.5566-9.5937c1.1036-2.0337,3.4639-3.29691,6.1582-3.29691
				c3.0342,0,6.0547,1.56841,8.2881,4.30231c2.95121,3.6142,4.0567,6.48869,3.378,8.7885c-0.91019,3.0884-4.8877,4.3736-7.792,5.312
				c-1.0645,0.3453-2.1143,0.7183-3.1719,1.0938c-4.1914,1.4897-8.5254,3.0298-14.4248,3.0693L73.30959,88.0459z M87.26069,66.479
				c-2.32809,0-4.35049,1.063-5.2793,2.7739c-2.98039,5.4912-3.371,5.7437-9.8925,9.9566l-0.1387,0.08929
				c-3.1719,2.0484-5.18069,4.5308-4.7764,5.9024c0.3506,1.1894,2.5293,1.8447,6.1358,1.8447l0.22169-0.001
				c5.7304-0.0381,9.9833-1.5498,14.0966-3.0112c1.0664-0.3789,2.125-0.7554,3.1992-1.103
				c2.69241-0.8702,6.37991-2.062,7.1407-4.6436c0.56931-1.9321-0.5049-4.5806-3.1944-7.873
				C92.73139,67.9131,89.99319,66.479,87.26069,66.479z"/>
		</g>
		<g>
			<path fill="#454545" d="M73.31449,93.7432c-4.6749,0-7.0928-1.0494-7.18849-3.11971l-0.001-5.6059h1v5.583
				c0.06639,1.4014,2.35639,2.1733,6.40629,2.1416c5.7294-0.0405,9.9833-1.5513,14.09571-3.0117
				c1.06729-0.3789,2.12589-0.7549,3.20009-1.1026c4.0147-1.2988,7.334-2.6308,7.2881-5.7925l-0.0048-0.3139l0.0087-0.0044V77.1582
				h1l-0.0087,5.9814c-0.1758,3.9166-4.67,5.3707-7.9747,6.4395c-1.0654,0.3452-2.1162,0.7178-3.1738,1.0938
				c-4.1914,1.4882-8.5254,3.02731-14.4228,3.06931C73.46289,93.7427,73.38869,93.7432,73.31449,93.7432z"/>
		</g>
		<g>
			<path fill="#454545" d="M93.89159,75.0947c1.1338,1.0713,0.9883,2.62209-0.332,3.46c-1.3203,0.8379-3.3125,0.6465-4.4483-0.42381
				c-1.1299-1.0664-0.9834-2.6172,0.3369-3.4561C90.76859,73.8359,92.76069,74.0283,93.89159,75.0947z M89.69039,77.7637
				c0.8614,0.8115,2.375,0.95409,3.3711,0.3213c0.9961-0.6329,1.1114-1.8106,0.25-2.6221
				c-0.8554-0.8086-2.3691-0.95119-3.3652-0.3184C88.94919,75.7773,88.835,76.9551,89.69039,77.7637"/>
		</g>
		<g>
			<path fill="#454545" d="M91.65429,79.1953c-1.0088,0-1.9648-0.3564-2.624-0.9785c-0.5742-0.541-0.8535-1.2188-0.78709-1.9082
				c0.0664-0.6924,0.4707-1.3086,1.14059-1.7344c0.5586-0.3535,1.24021-0.541,1.9707-0.541c1.0078,0,1.9609,0.3555,2.6182,0.97459
				c0.5761,0.5449,0.8574,1.2246,0.79099,1.916c-0.0655,0.6914-0.47169,1.3067-1.14069,1.7305
				C93.06539,79.0088,92.38569,79.1953,91.65429,79.1953z M91.35449,74.2705c-0.6856,0-1.3242,0.1748-1.8438,0.5049
				c-0.6054,0.3848-0.9726,0.9375-1.0312,1.5547c-0.0586,0.6152,0.1943,1.2246,0.7129,1.7148
				c0.6162,0.5801,1.5137,0.9141,2.4619,0.9141c0.6855,0,1.3232-0.1748,1.8418-0.5039c0.6064-0.3848,0.97269-0.9375,1.0322-1.5537
				c0.0586-0.6162-0.1972-1.2276-0.7187-1.7198C93.19629,74.6025,92.30179,74.2705,91.35449,74.2705z M91.61909,78.5986
				L91.61909,78.5986c-0.7724-0.0009-1.5048-0.2734-2.0097-0.749c-0.4405-0.416-0.6553-0.9375-0.6045-1.4707
				c0.0508-0.5332,0.3633-1.0078,0.8769-1.334c0.4268-0.2715,0.9483-0.414,1.5078-0.414c0.7715,0,1.50201,0.2714,2.00401,0.7451
				c0.4433,0.4179,0.6582,0.9424,0.60741,1.4756c-0.05081,0.5332-0.36141,1.0068-0.875,1.3339
				C92.70019,78.4551,92.17869,78.5986,91.61909,78.5986z M91.38959,74.8682c-0.51459,0-0.9921,0.1298-1.3808,0.3769
				c-0.45119,0.2862-0.72359,0.6973-0.7676,1.1572c-0.0439,0.4571,0.1445,0.9102,0.5313,1.27451
				c0.4609,0.43449,1.1338,0.68449,1.8466,0.68449l0,0c0.5147,0,0.9913-0.1308,1.37991-0.3769
				c0.45019-0.2862,0.72269-0.6963,0.76559-1.1563c0.04501-0.458-0.1455-0.9131-0.5341-1.2793
				C92.77249,75.1162,92.10159,74.8682,91.38959,74.8682z"/>
		</g>
	</g>
	<g>
		<g>
			<path fill="#454545" d="M228.82709,45.6587c-1.7753,0-4.3222-0.3223-5.9296-3.1108c-1.80571-3.1314-1.52148-5.4327-0.9659-6.8116
				c0.5918-1.4682,1.77841-2.5854,3.17479-2.9887c1.0889-0.314,2.24321-0.1846,2.9971-0.0372c0.5703,0.1114,0.8799,0.1114,1.4492,0
				c0.75391-0.1474,1.9102-0.2758,2.99519,0.0372c1.39641,0.4033,2.58391,1.5205,3.1757,2.9887
				c0.55569,1.3789,0.8389,3.6802-0.9677,6.812C233.15039,45.3364,230.60349,45.6587,228.82709,45.6587z M226.60249,33.5332
				c-0.41011,0-0.80861,0.0571-1.2187,0.1753c-0.85161,0.2456-1.9619,1.0059-2.5244,2.4019
				c-0.47371,1.1728-0.7002,3.1552,0.9052,5.9379c1.0401,1.8052,2.60159,2.6104,5.0625,2.6104
				c2.46201,0,4.0235-0.8047,5.0625-2.6099c1.6055-2.7832,1.379-4.7656,0.9063-5.9384c-0.5625-1.396-1.6738-2.1558-2.52539-2.4019
				c-0.9014-0.2603-1.82521-0.1533-2.5264-0.0166c-0.64351,0.1255-1.1884,0.125-1.832,0.0005
				C227.52928,33.6177,227.09569,33.5332,226.60249,33.5332z"/>
		</g>
		<g>
			<path fill="#454545" d="M237.13278,45.6587c-1.91209,0-3.334-0.4336-4.4736-1.3648c-0.2139-0.1748-0.24509-0.4897-0.0703-0.7036
				c0.1748-0.2143,0.4902-0.2446,0.70312-0.0708c0.95119,0.7774,2.17188,1.1392,3.84077,1.1392
				c2.4619,0,4.0235-0.8052,5.06351-2.6099c1.60449-2.7832,1.3779-4.7656,0.9043-5.9384c-0.5625-1.396-1.6738-2.1563-2.52541-2.4019
				c-1.05269-0.3037-1.8369-0.1504-2.52539-0.0166c-0.6445,0.1255-1.18851,0.125-1.832,0.0005
				c-0.69051-0.1343-1.47459-0.2866-2.5293,0.0161c-0.1631,0.0483-0.33011,0.1118-0.4971,0.1904
				c-0.2451,0.1177-0.54691,0.0117-0.66501-0.2387c-0.11819-0.25-0.01079-0.5479,0.23921-0.6656
				c0.2139-0.101,0.4278-0.1821,0.64159-0.2456c1.291-0.372,2.2803-0.1792,3.002-0.0386c0.56931,0.1114,0.87991,0.1114,1.4492,0
				c0.7207-0.1401,1.71001-0.333,2.99411,0.0372c1.3965,0.4033,2.584,1.5205,3.1758,2.9887
				c0.55571,1.3789,0.8399,3.6802-0.9648,6.8116C241.45609,45.3364,238.90918,45.6587,237.13278,45.6587z"/>
		</g>
		<g>
			<path fill="#454545" d="M228.64159,33.814c-0.0498,0-0.10059-0.0074-0.15041-0.023
				c-0.26369-0.0835-0.40918-0.3642-0.32619-0.6274c3.12701-9.9082-0.9433-18.5274-0.98531-18.6133
				c-0.1026-0.2134-0.04201-0.4702,0.14549-0.6143c0.18941-0.145,0.4521-0.1377,0.63091,0.0176
				c6.54591,5.6436,9.54001,18.6978,9.66501,19.2505c0.06049,0.2695-0.10941,0.5371-0.37891,0.5977
				c-0.27251,0.0625-0.5361-0.1084-0.5977-0.378c-0.02629-0.1201-2.5166-10.9751-7.68649-17.0342
				c1.07129,3.292,2.4639,9.7784,0.1602,17.0748C229.05078,33.6777,228.85449,33.814,228.64159,33.814z"/>
		</g>
	</g>
	<g>
		<g>
			<path fill="#454545" d="M92.98539,118.8442c-0.1563,0-0.3057-0.0732-0.40039-0.2006
				c-0.10941-0.1465-0.12991-0.3409-0.05471-0.5069l2.1445-4.6972c0.11521-0.251,0.4121-0.3589,0.6631-0.2476
				c0.251,0.1147,0.3613,0.4116,0.24711,0.6626l-1.76571,3.8662l3.7061-0.5259c0.2637-0.041,0.5264,0.1514,0.5654,0.4248
				c0.0391,0.2735-0.1513,0.52641-0.42479,0.5655l-4.61031,0.6543C93.03219,118.8428,93.00879,118.8442,92.98539,118.8442z"/>
		</g>
		<g>
			<path fill="#454545" d="M67.31929,146.14751c-0.2197,0-0.3642-0.09041-0.44629-0.16611
				c-0.47161-0.4326-1.00871-0.9238,8.20509-13.0468c4.38969-5.7749,9.2696-11.8833,9.8125-12.4751
				c0.61819-0.66801,1.626-1.4624,2.9268-1.4624c0.93361,0,1.8555,0.4126,2.7402,1.226c0.9278,0.8531,1.418,1.7823,1.458,2.7623
				c0.0498,1.2485-0.6386,2.26611-1.22459,2.8999C90.60639,126.0859,69.68159,146.14751,67.31929,146.14751z M87.81739,119.9971
				c-0.9395,0-1.71,0.6201-2.19139,1.1401c-1.62111,1.7661-15.751,19.7817-17.72951,23.728
				c3.7529-2.31781,20.5732-17.9297,22.1592-19.65771c0.45889-0.4966,0.99699-1.2763,0.9609-2.18159
				c-0.0293-0.7051-0.4111-1.4004-1.1357-2.0664C89.18649,120.3208,88.49219,119.9971,87.81739,119.9971z"/>
		</g>
		<g>
			<path fill="#454545" d="M90.34179,121.1226c-0.1465,0-0.2871-0.064-0.38279-0.1783c-0.11721-0.1401-0.14941-0.333-0.083-0.5029
				l2.26759-5.8291c0.10049-0.2578,0.39059-0.3862,0.64741-0.2847c0.25689,0.1001,0.38479,0.3897,0.28419,0.647l-1.9365,4.9785
				l4.6386-0.9292c0.2666-0.0547,0.5342,0.1206,0.5889,0.3921c0.0547,0.2705-0.12109,0.5342-0.39159,0.5884l-5.5342,1.1084
				C90.40719,121.1191,90.374,121.1226,90.34179,121.1226z"/>
		</g>
		<g>
			<path fill="#454545" d="M90.34959,121.1021c-0.1367,0-0.27251-0.05569-0.3721-0.1656
				c-0.18449-0.2051-0.1679-0.5215,0.03709-0.706c1.5098-1.3579,4.52741-3.9453,7.7891-6.0157
				c0.23151-0.1484,0.542-0.0791,0.6895,0.1543c0.14841,0.2334,0.0791,0.542-0.1543,0.6905
				c-3.1993,2.0307-6.169,4.5771-7.6543,5.914C90.58889,121.0596,90.46879,121.1021,90.34959,121.1021z"/>
		</g>
		<g>
			<path fill="#454545" d="M81.68749,134.25439c-0.2656,0-0.4863-0.2085-0.499-0.47609c-0.0479-0.9819-1.4092-1.57811-1.4229-1.584
				c-0.25491-0.1064-0.375-0.3994-0.2685-0.65431c0.1064-0.25529,0.4013-0.3754,0.6533-0.26849
				c0.0801,0.03371,1.959,0.8369,2.0361,2.459c0.01369,0.2758-0.1992,0.51021-0.4756,0.52341
				C81.70309,134.25439,81.69529,134.25439,81.68749,134.25439z"/>
		</g>
		<g>
			<path fill="#454545" d="M83.38279,126.9419c-0.1523,0-0.3027-0.0698-0.4014-0.20171c-0.5117-0.688-1.5703-0.5664-1.583-0.5644
				c-0.27239,0.03371-0.52539-0.15479-0.5625-0.4282c-0.0371-0.2735,0.1543-0.5254,0.4278-0.563
				c0.0664-0.0074,1.65131-0.2105,2.52049,0.959c0.165,0.2216,0.1181,0.5346-0.1026,0.6997
				C83.59179,126.9097,83.48729,126.9419,83.38279,126.9419z"/>
		</g>
		<g>
			<path fill="#454545" d="M89.38959,127.061c-0.05559,0-0.1113-0.00919-0.16689-0.0283
				c-0.2598-0.0923-0.39651-0.3779-0.3047-0.6382c0.59179-1.6733-1.24511-2.6435-1.32421-2.6841
				c-0.24519-0.1264-0.34179-0.4282-0.2149-0.6733c0.127-0.2461,0.4287-0.3423,0.6738-0.2153
				c0.9327,0.4809,2.5108,1.917,1.8086,3.9057C89.78809,126.9331,89.59569,127.061,89.38959,127.061z"/>
		</g>
	</g>
	<g>
		<g>
			<path fill="#454545" d="M132.98628,196.1982c-0.62589,0-6.11519-0.0527-6.11519-1.86319l-1.8018-20.3291
				c-0.0127-0.13971,0.0342-0.27841,0.1289-0.38191c0.09481-0.1035,0.2286-0.16209,0.3692-0.16209
				c0.0273,0,0.1445,0.002,0.1719,0.0069c1.1865,0.1972,2.97549,0.3994,7.24699,0.3994c4.27151,0,6.06061-0.20219,7.2471-0.3994
				c0.02731-0.0049,0.1445-0.0069,0.17191-0.0069c0.14059,0,0.2744,0.05859,0.36909,0.16209
				c0.09471,0.1035,0.14162,0.2422,0.12891,0.38191l-1.8037,20.373C139.10159,196.14549,133.61229,196.1982,132.98628,196.1982z
				 M126.12009,174.53909l1.749,19.75191c0.1836,0.31641,2.06251,0.9072,5.1172,0.9072c3.05472,0,4.93361-0.5918,5.12801-0.92279
				l1.7382-19.73151c-1.2402,0.16901-3.12401,0.3243-6.86621,0.3243C129.23929,174.86819,127.35549,174.71291,126.12009,174.53909z"
				/>
		</g>
		<g>
			<path fill="#454545" d="M132.98628,174.86819c-8.76659,0-8.76659-0.7168-8.76659-1.2403c0-0.08099,0.0205-0.2617,0.1866-0.41699
				c0.0214-0.06931,0.05171-0.22461,0.0732-0.33301c0.01951-0.0957,0.0391-0.1953,0.06251-0.29289
				c0.01369-0.4922,0.34859-1.17781,8.44428-1.17781c8.09381,0,8.42871,0.68561,8.44241,1.17781
				c0.02339,0.09659,0.043,0.19429,0.06149,0.28899c0.0215,0.10741,0.05281,0.2617,0.0791,0.34081
				c0.1573,0.14751,0.18359,0.31551,0.18359,0.4131C141.75288,174.1514,141.75288,174.86819,132.98628,174.86819z
				 M125.37789,173.43851c0.6094,0.1523,2.4278,0.42969,7.60839,0.42969c5.17781,0,6.9971-0.2764,7.60751-0.4287
				c-0.03331-0.11819-0.05861-0.2422-0.084-0.37019c-0.0118-0.0576-0.02351-0.1172-0.03621-0.17671
				c-0.48529-0.1875-2.51459-0.4854-7.4873-0.4854c-4.97359,0-7.00389,0.2979-7.48919,0.4854
				c-0.0127,0.0605-0.02441,0.12111-0.0362,0.1797C125.43549,173.1992,125.41109,173.3223,125.37789,173.43851z"/>
		</g>
		<g>
			<path fill="#454545" d="M132.98628,173.6729c-0.04199,0-0.0849-0.00589-0.1279-0.0166
				c-0.26659-0.07039-0.4258-0.3448-0.3555-0.61139l2.50101-9.47461c0.0713-0.26759,0.3428-0.4277,0.6113-0.3555
				c0.2666,0.0704,0.42581,0.3438,0.3555,0.6104l-2.50099,9.47461C133.41019,173.5244,133.20799,173.6729,132.98628,173.6729z"/>
		</g>
	</g>
	<g>
		<g>
			<path fill="#454545" d="M127.05469,46.2456h-0.001c-4.5469-0.0005-7.0303-2.7939-7.2988-3.1123
				c-0.33789-0.4009-0.3565-1.0459-0.0645-2.3008c0.1612-0.7021,0.7871-0.8999,1.5117-1.1289
				c0.2471-0.0781,0.5323-0.168,0.8545-0.29c0.2989-0.1123,0.6143-0.2691,0.9795-0.4502c0.79891-0.3946,1.793-0.8853,3.3047-1.3247
				c7.70021-2.2388,11.6553-7.0479,11.4395-13.9077l-0.00391-0.1446c-0.086-2.7944-0.15919-5.208-2.19438-7.6504
				c-0.20111-0.2407-0.5742-0.6884,1.46001-2.5586c0.09958-0.0908,0.21968-0.1406,0.36618-0.1313
				c0.13382,0.0073,0.25981,0.0688,0.3486,0.1699c0.4229,0.4824,0.72859,0.8569,0.9776,1.1631
				c0.68849,0.8462,0.8965,1.1016,2.08099,1.7236c5.5762,2.9273,7.35062,11.21,3.9541,18.4634
				c-3.02539,6.4629-10.4433,10.6162-16.207,11.3784C128.05569,46.2114,127.54789,46.2456,127.05469,46.2456z M136.48729,15.4644
				c2.1221,2.6508,2.20309,5.2954,2.2881,8.0918l0.0049,0.144c0.2314,7.3662-3.97369,12.5181-12.1602,14.8984
				c-1.4267,0.4151-2.3769,0.8843-3.14059,1.2618c-0.3994,0.1972-0.7451,0.3667-1.0703,0.4887
				c-0.3408,0.1294-0.6436,0.2251-0.9053,0.3081c-0.5723,0.1807-0.8086,0.2676-0.83889,0.4004
				c-0.26851,1.1553-0.166,1.3975-0.14251,1.4341c0.0927,0.1099,2.3662,2.7534,6.5312,2.7539c0.001,0,0.001,0,0.001,0
				c0.4502,0,0.9131-0.0312,1.37691-0.0923c5.4942-0.7265,12.55859-4.6738,15.4317-10.811
				c3.1738-6.7769,1.5976-14.4717-3.51271-17.1538c-1.3652-0.7178-1.666-1.0864-2.39259-1.9781
				c-0.16991-0.2089-0.3662-0.4511-0.6113-0.7392C136.957,14.8618,136.62109,15.2485,136.48729,15.4644z"/>
		</g>
	</g>
	<g>
		<g>
			<path fill="#454545" d="M177.41499,245.68159c-1.15041,0-2.21091-0.45309-3.06731-1.3105c-1.9512-1.9502-1.9512-5.125,0-7.07719
				l16.5654-16.56641c0.9453-0.9453,2.2012-1.46579,3.5381-1.46579c1.33791,0,2.5947,0.52049,3.54001,1.4678
				c1.8555,1.85349,1.71489,4.68939-0.3349,6.74219l-16.56551,16.56351
				C180.02928,245.09669,178.72359,245.68159,177.41499,245.68159z M194.45119,220.2617c-1.0694,0-2.07518,0.41699-2.8311,1.1729
				l-16.5654,16.56641c-1.56149,1.5625-1.56149,4.10249,0,5.66309c1.45309,1.45601,3.7197,1.27341,5.3291-0.336l16.5654-16.56349
				c1.66701-1.6689,1.8047-3.8593,0.33501-5.32811C196.52728,220.6787,195.52148,220.2617,194.45119,220.2617z"/>
		</g>
		<g>
			<path fill="#454545" d="M169.32028,245.06149c-0.8564,0-1.70409-0.3799-2.27049-1.10539
				c-0.9687-1.24609-0.74319-3.0538,0.502-4.0293c0.7363-0.56551,7.2314-5.60361,14.16499-12.5352
				c6.7021-6.70511,11.00781-12.35741,11.8027-13.42191c1.002-1.2832,2.8096-1.5058,4.0537-0.53999
				c0.60651,0.47169,0.9922,1.15039,1.08701,1.9111c0.0957,0.76169-0.1114,1.5137-0.5831,2.1192
				c-0.0849,0.11029-0.8828,1.1328-2.2148,2.7421l-0.7695-0.6376c1.3183-1.5938,2.1084-2.60651,2.19431-2.7178
				c0.30759-0.39549,0.44339-0.88579,0.38091-1.38089c-0.06161-0.49701-0.31351-0.93941-0.70799-1.24611
				c-0.81161-0.6308-1.98831-0.4834-2.62601,0.33011c-0.81541,1.0918-5.15921,6.79489-11.91022,13.5488
				c-6.9785,6.97659-13.5215,12.0518-14.24509,12.6075c-0.82321,0.6445-0.9707,1.8232-0.33981,2.6357
				c0.63571,0.81351,1.8125,0.96001,2.62691,0.3262c0.1123-0.0869,1.12309-0.87599,2.7188-2.1963l0.6367,0.7715
				c-1.61128,1.332-2.63181,2.12891-2.74319,2.2148C170.55659,244.8643,169.93549,245.06149,169.32028,245.06149z"/>
		</g>
		<g>
			<path fill="#454545" d="M171.35739,237.72749c-0.207,0-0.3994-0.12889-0.47169-0.33589
				c-0.63181-1.8047-0.16791-3.8447,1.18359-5.1953l13.74609-13.7442c1.35062-1.3535,3.3907-1.81931,5.1944-1.1855
				c0.26071,0.0918,0.39841,0.377,0.30661,0.6377c-0.09081,0.2598-0.37601,0.3994-0.6367,0.30571
				c-1.44431-0.50591-3.0762-0.13481-4.1572,0.94919l-13.74611,13.74411c-1.0811,1.08009-1.45319,2.71289-0.9473,4.15819
				c0.0918,0.2617-0.0459,0.54691-0.30659,0.63771C171.46779,237.7178,171.41209,237.72749,171.35739,237.72749z"/>
		</g>
	</g>
	<g>
		<g>
			<path fill="#454545" d="M119.85739,122.8701L119.85739,122.8701c-0.2793,0-0.6767-0.0332-0.8926-0.3188
				c-0.1181-0.1573-0.1543-0.3584-0.0986-0.5528c0.5723-1.9936,3.0117-2.7646,4.3945-2.2114
				c0.7735,0.3091,1.1602,0.6108,1.2549,0.9795c0.0508,0.1963,0.0098,0.4004-0.1093,0.5459l-0.0918,0.0864
				C123.06929,122.3105,120.87989,122.8701,119.85739,122.8701z M122.26559,120.6089c-0.8232,0-1.8164,0.4375-2.26949,1.2573
				c0.7793-0.042,2.2412-0.4155,3.26759-0.98341c-0.0948-0.04829-0.2168-0.1045-0.3741-0.167
				C122.71479,120.646,122.499,120.6089,122.26559,120.6089z"/>
		</g>
		<g>
			<path fill="#454545" d="M142.13379,145.51511c-2.7813,0-6.64839-0.41451-9.98441-2.44821
				c-5.64549-3.4395-13.47359-12.87839-14.0527-18.19039c-0.1465-1.3423,0.1582-2.38631,0.90531-3.1031l0.69139,0.7217
				c-0.5108,0.4903-0.7139,1.2554-0.6026,2.27299c0.541,4.9668,8.2334,14.1875,13.57809,17.4453
				c4.66612,2.8423,10.53131,2.32181,12.461,2.15131c0.38571-0.03461,0.64941-0.0507,0.7617-0.0459l0.1123,0.0079
				c0.1777,0.01309,0.6826,0.0488,0.8945-0.01271c-0.0293-0.0894-0.1162-0.2764-0.373-0.59819
				c-0.88091-1.1015-1.9395-1.45311-3.4043-1.93991c-2.61621-0.8687-6.20021-2.05859-11.85451-8.04639
				c-3.21579-3.40581-4.36909-6.54881-5.2109-8.84381c-0.4766-1.2978-0.8526-2.3232-1.43269-2.9292
				c-0.20991-0.2187-0.46771-0.3837-0.76661-0.4897l0.334-0.9424c0.4473,0.1587,0.836,0.4077,1.1553,0.7407
				c0.7246,0.7574,1.13181,1.8687,1.6484,3.2764c0.8125,2.2134,1.9248,5.24461,4.99911,8.5015
				c5.4814,5.8047,8.92769,6.9487,11.4433,7.7841c1.56639,0.5201,2.8047,0.9312,3.8701,2.26469
				c0.3633,0.4541,0.81059,1.1245,0.5069,1.7021c-0.33501,0.63921-1.26561,0.5728-1.8799,0.5303l-0.10651-0.00731
				c-0.0947-0.00439-0.3046,0.01711-0.60829,0.0439C144.56448,145.4189,143.47559,145.51511,142.13379,145.51511z"/>
		</g>
		<g>
			<path fill="#454545" d="M121.49219,120.7124c-0.1533,0-0.3037-0.0703-0.4024-0.2026
				c-0.04779-0.06551-1.17179-1.61481-0.6816-3.42831c0.3643-1.352,1.50781-2.4502,3.3955-3.2636
				c0.251-0.1089,0.54881,0.0073,0.6572,0.2612c0.1094,0.2534-0.0078,0.5479-0.2607,0.6567
				c-1.5947,0.6871-2.5459,1.564-2.82719,2.6065c-0.36521,1.3525,0.51269,2.561,0.52149,2.5727
				c0.1641,0.2222,0.1172,0.5352-0.1054,0.6997C121.70019,120.6807,121.59569,120.7124,121.49219,120.7124z"/>
		</g>
	</g>
	<g>
		<g>
			<path fill="#454545" d="M82.61819,196.1982c-0.4717,0-4.60551-0.0468-4.60551-1.6523v-17.5273c0-3.0459,0-3.295,1.0107-4.2774
				l0.2383-0.2334c1.1787-1.1787,1.1787-1.1787,1.1787-5.2549v-1.90331c-0.125-0.11819-0.1992-0.28119-0.1992-0.4619v-0.8008
				c0-0.1875,0.0801-0.35739,0.207-0.4756c0.0411-0.23529,0.2461-0.4131,0.4922-0.4131h3.3555
				c0.249,0,0.45511,0.1817,0.4932,0.41901c0.1308,0.11819,0.208,0.2851,0.208,0.4697v0.8008
				c0,0.1846-0.0772,0.35161-0.2012,0.46971v1.89549c0,4.0752,0,4.0752,1.1816,5.2549l0.2403,0.2363
				c1.0078,0.9834,1.0078,1.23151,1.0078,4.27451v17.5273C87.22559,196.1514,83.08979,196.1982,82.61819,196.1982z
				 M81.24119,164.66209c0.1182,0.09081,0.1992,0.2256,0.1992,0.37601v2.2148c0,4.1514,0,4.4903-1.4726,5.96291l-0.2471,0.24219
				c-0.708,0.68851-0.708,0.68851-0.708,3.56061v17.5273c0.1445,0.1924,1.48931,0.6523,3.60551,0.6523
				c2.1172,0,3.4629-0.4599,3.62109-0.7168l-0.01369-17.4628c0-2.8692,0-2.8692-0.7061-3.55769l-0.249-0.2451
				c-1.4746-1.47261-1.4746-1.81151-1.4746-5.96291v-2.2148c0-0.16411,0.07911-0.3096,0.2012-0.4014v-0.3232
				c-0.043-0.0332-0.08209-0.07231-0.1133-0.11531h-2.5176c-0.03219,0.05281-0.07519,0.0997-0.125,0.13771V164.66209z"/>
		</g>
	</g>
	<g>
		<g>
			<path fill="#454545" d="M224.30269,130.86771c-0.2099,0-0.4052-0.1333-0.47459-0.34381
				c-0.08691-0.26219,0.05569-0.54489,0.31839-0.6313c2.7598-0.90819,5.7314-1.3687,8.832-1.3687
				c3.10451,0,6.0762,0.46051,8.83501,1.3687c0.2627,0.08641,0.40529,0.36911,0.3183,0.6313
				c-0.0869,0.2617-0.37111,0.40581-0.63078,0.31891c-2.65822-0.875-5.52441-1.31891-8.51962-1.31891
				c-2.99699,0-5.86319,0.44391-8.52238,1.31891C224.40718,130.85989,224.35449,130.86771,224.30269,130.86771z"/>
		</g>
		<g>
			<path fill="#454545" d="M237.89359,135.15379c-0.27249,0-0.49519-0.21779-0.5-0.49069
				c-0.0049-0.2764,0.2148-0.50439,0.4912-0.50931c6.87201-0.125,10.5957-1.1572,10.5957-6.2422
				c0-6.8574-6.9532-12.4365-15.4991-12.4365c-8.5488,0-15.5009,5.5791-15.5009,12.4365c0,5.085,3.7236,6.1172,10.5957,6.2422
				c0.27631,0.00491,0.49609,0.23291,0.4912,0.50931c-0.0049,0.27589-0.2363,0.5141-0.50879,0.49069
				c-5.85841-0.10689-11.57811-0.75389-11.57811-7.2422c0-7.4087,7.40131-13.4365,16.498-13.4365
				c9.1006,0,16.502,6.0278,16.502,13.4365c0,6.4883-5.7198,7.13531-11.5782,7.2422
				C237.89938,135.15379,237.89648,135.15379,237.89359,135.15379z"/>
		</g>
		<g>
			<path fill="#454545" d="M232.98138,144.8208c-0.0009,0-0.0009,0-0.0009,0c-0.00099,0-0.00099,0-0.002,0h-0.00099
				c-0.91011,0-5.39841-0.0791-5.39841-1.6006c0.0127-0.13429,0.8936-7.1299-0.38181-13.42329
				c-0.05469-0.27051,0.1201-0.53421,0.39061-0.5894c0.27249-0.0522,0.53511,0.1201,0.5898,0.3911
				c1.22369,6.041,0.53909,12.4971,0.41409,13.54739c0.3271,0.25101,1.84961,0.6748,4.3887,0.6748
				c2.5468,0,4.0703-0.4263,4.3916-0.6772c-0.10159-0.8062-0.836-7.3907,0.4111-13.545c0.0547-0.271,0.3154-0.4472,0.58981-0.3911
				c0.27058,0.05519,0.44539,0.31889,0.39069,0.5894c-1.27541,6.2934-0.39461,13.289-0.3858,13.35939
				c0.00391,1.5854-4.48529,1.66451-5.39549,1.66451H232.98138z"/>
		</g>
	</g>
	<g>
		<g>
			<path fill="#454545" d="M182.87399,23.6772c-0.19141,0-0.375-0.1108-0.45699-0.2978
				c-1.40822-3.187-2.18562-3.6021-4.49022-4.8345l0.1777-0.4721l0.23529-0.441c2.45322,1.3116,3.44441,1.8413,4.9913,5.3433
				c0.1123,0.2524-0.002,0.5478-0.2549,0.6597C183.01068,23.6636,182.94139,23.6772,182.87399,23.6772z"/>
		</g>
		<g>
			<path fill="#454545" d="M182.87399,45.7485c-6.36031,0-11.53511-5.1753-11.53511-11.5361
				c0-6.3603,5.1748-11.5352,11.53511-11.5352c6.3604,0,11.5352,5.1749,11.5352,11.5352
				C194.40919,40.5732,189.23439,45.7485,182.87399,45.7485z M182.87399,23.6772c-5.80951,0-10.53511,4.7261-10.53511,10.5352
				c0,5.8096,4.7256,10.5361,10.53511,10.5361c5.8096,0,10.5352-4.7265,10.5352-10.5361
				C193.40919,28.4033,188.68359,23.6772,182.87399,23.6772z"/>
		</g>
		<g>
			<path fill="#454545" d="M183.04388,23.6509c-0.16689,0-0.32509-0.0835-0.41888-0.2266
				c-1.41891-2.1719-0.19731-5.0766,1.53999-6.8559c1.4395-1.4737,1.92189-2.5201,1.92679-2.5303
				c0.082-0.1826,0.27051-0.312,0.4678-0.2944c0.2002,0.0048,0.37891,0.1279,0.45311,0.3144
				c0.0674,0.1709,1.64059,4.2119,0.043,7.0674c-0.75391,1.3481-2.07521,2.1953-3.92581,2.5181
				C183.10159,23.6484,183.0723,23.6509,183.04388,23.6509z M186.40329,15.4487c-0.33301,0.479-0.8252,1.1035-1.52341,1.8184
				c-1.38579,1.4204-2.41699,3.6401-1.582,5.3237c1.36031-0.3056,2.33-0.9614,2.88571-1.9536
				C187.11038,18.981,186.74219,16.7363,186.40329,15.4487z"/>
		</g>
	</g>
	<g>
		<g>
			<path fill="#454545" d="M183.6162,196.1973l-0.74319-0.002l-0.74211,0.002c-1.6055,0-4.29201,0-4.29201-2.1758l-0.00099-8.1895
				c-0.00389-3.0927-0.00681-4.7968,1.4639-9.06641c0.83591-2.4218,1.2636-5.32419,1.27139-8.6299
				c-0.1601-0.20599-0.25389-0.455-0.2421-0.9375c0.01561-0.5087,0.0585-1.10249,0.0986-1.6357l0.04491-0.6396
				c0.07419-1.1602,0.8584-1.7247,2.39749-1.7256c1.54391,0.0009,2.32811,0.5654,2.3994,1.7265l0.0439,0.6201
				c0.03911,0.5381,0.084,1.1407,0.0977,1.6534c0.0146,0.4922-0.08299,0.7422-0.2402,0.9404
				c0.00781,3.3047,0.4355,6.207,1.27141,8.6279c1.4707,4.26961,1.4678,5.97371,1.4639,9.06641l-0.00101,8.1895
				c0,0.6474-0.26849,1.5029-1.5488,1.90331C185.54979,196.1768,184.51859,196.1973,183.6162,196.1973z M182.873,195.1953
				l0.74319,0.002c0.88969,0,1.80269-0.02739,2.44429-0.2276c0.74611-0.2334,0.84671-0.61029,0.84671-0.9482l0.00099-8.19141
				c0.00391-3.0811,0.00591-4.62799-1.40919-8.73929c-0.8799-2.54691-1.32611-5.58881-1.32611-9.04201
				c0-0.2851,0.1376-0.4424,0.20412-0.5175c0.01459-0.0157,0.04289-0.08209,0.03609-0.30569c-0.0137-0.5-0.0567-1.086-0.0947-1.6084
				l-0.045-0.6299c-0.02139-0.35251-0.04781-0.78911-1.3994-0.79001c-1.3506,0.0009-1.37891,0.4384-1.40131,0.79001l-0.0459,0.64839
				c-0.0381,0.5186-0.0811,1.09671-0.0957,1.5899c-0.00589,0.2226,0.02341,0.289,0.02341,0.28999
				c0.08099,0.09081,0.21869,0.24901,0.21869,0.5332c0,3.4532-0.44618,6.4951-1.3261,9.043
				c-1.41508,4.11031-1.41309,5.6572-1.40919,8.7383l0.00099,8.19141c0,0.8681,0.86131,1.1758,3.29201,1.1758L182.873,195.1953z"/>
		</g>
	</g>
	<g>
		<g>
			<path fill="#454545" d="M173.65329,133.1265c-3.0898,0-5.6035-2.5313-5.6035-5.64259c0-2.0708,1.0977-3.9395,2.88091-4.937
				c0.47749-2.3784,2.45209-4.2808,4.92969-4.7564c1.0585-2.7876,3.8378-4.64059,7.01562-4.64259
				c2.72458,0.002,5.18848,1.3672,6.50578,3.5835c2.6543,0.0616,4.795,2.2808,4.795,5.0005c0,0.19389-0.01079,0.3882-0.0332,0.5811
				c2.1132,0.73,3.5527,2.69479,3.5527,4.9248c0,2.87991-2.39059,5.2226-5.33009,5.2226c-1.69431,0-3.27151-0.7905-4.27831-2.1293
				c-1.3721,0.14011-2.81351-0.3125-3.8447-1.2207c-1.01271,1.0542-2.5977,1.6909-4.2774,1.6909
				c-0.5605,0-1.11031-0.06841-1.64059-0.2032C177.29388,132.16701,175.53809,133.1265,173.65329,133.1265z M182.87601,114.1479
				c-2.85352,0.002-5.33212,1.7071-6.16801,4.24319c-0.0596,0.1807-0.21581,0.312-0.4043,0.33891
				c-2.27441,0.3242-4.0957,2.06-4.4297,4.2207c-0.0244,0.1601-0.125,0.2978-0.2695,0.3706
				c-1.5762,0.7915-2.5547,2.3867-2.5547,4.16261c0,2.56,2.0654,4.64259,4.6035,4.64259c1.6563,0,3.1924-0.90379,4.0069-2.3589
				c0.1171-0.20709,0.3613-0.30319,0.58981-0.23149c0.54588,0.1758,1.123,0.2652,1.71579,0.2652
				c1.5889,0,3.06149-0.6597,3.84081-1.72169c0.08989-0.1216,0.22859-0.1963,0.37889-0.20361
				c0.14751-0.0088,0.295,0.0537,0.39651,0.1655c0.89848,0.99849,2.34378,1.4731,3.65919,1.2603
				c0.1904-0.0347,0.38869,0.05319,0.49709,0.21719c0.80661,1.2159,2.1631,1.94141,3.62791,1.94141
				c2.3877,0,4.33009-1.894,4.33009-4.2226c0-1.9233-1.3311-3.6035-3.2383-4.0864c-0.2588-0.06599-0.4209-0.3243-0.36621-0.586
				c0.0576-0.291,0.08501-0.563,0.08501-0.8335c0-2.2065-1.75301-4.0019-3.9082-4.0019l-0.1055,0.0029
				c-0.19139,0.0274-0.4072-0.06741-0.5088-0.25681C187.55469,115.4248,185.34079,114.1499,182.87601,114.1479z"/>
		</g>
		<g>
			<path fill="#454545" d="M183.15329,146.1479c-2.0556,0-3.60541-0.8515-3.60541-1.98041c0-0.06639,0.01361-0.1333,0.039-0.1944
				c0.01271-0.02879,1.20021-2.95059,0.082-7.6337c-0.68649-2.8746-2.02339-3.7505-3.11229-4.19189
				c-0.25581-0.104-0.37891-0.39551-0.2744-0.65141c0.1026-0.25589,0.39159-0.3799,0.6514-0.27539
				c1.91989,0.7793,3.0977,2.332,3.70799,4.8862c1.08011,4.524,0.15331,7.4859-0.084,8.12849
				c0.10942,0.38721,1.11819,0.91251,2.5957,0.91251c1.4776,0,2.4863-0.5249,2.5957-0.91211
				c-0.2373-0.64349-1.16499-3.60539-0.08199-8.12889c0.84958-3.562,2.71777-4.58791,4.25-5.084
				c0.26659-0.0854,0.54488,0.0591,0.62988,0.32179c0.0849,0.26271-0.05861,0.54451-0.3213,0.62941
				c-1.3633,0.44139-2.8555,1.30519-3.586,4.3653c-1.12199,4.6835,0.06741,7.6044,0.08011,7.6333
				c0.02539,0.06149,0.03909,0.1284,0.03909,0.19479C186.75879,145.2964,185.209,146.1479,183.15329,146.1479z"/>
		</g>
		<g>
			<path fill="#454545" d="M183.09279,133.44971c-0.0049,0-0.0098,0-0.0157,0c-0.1582-0.00491-0.3056-0.08501-0.39549-0.21581
				c-0.8378-1.21291-1.3867-2.6812-1.4814-3.0508l0.96869-0.248c0.0567,0.2207,0.4102,1.18309,0.95612,2.1274
				c0.47359-0.6714,1.23628-1.8354,1.72169-2.9966l0.92189,0.3848c-0.79399,1.90331-2.2227,3.7309-2.2823,3.80811
				C183.39059,133.37939,183.24609,133.44971,183.09279,133.44971z"/>
		</g>
	</g>
	<g>
		<g>
			<path fill="#454545" d="M217.86519,235.2393c-0.27631,0-0.5-0.22371-0.5-0.5v-4.9883c0-0.27641,0.22369-0.5,0.5-0.5
				c0.2764,0,0.5,0.22359,0.5,0.5v4.9883C218.36519,235.01559,218.14159,235.2393,217.86519,235.2393z"/>
		</g>
		<g>
			<path fill="#454545" d="M248.09378,235.2393c-0.2764,0-0.5-0.22371-0.5-0.5v-4.9883c0-0.27641,0.2236-0.5,0.5-0.5
				c0.27631,0,0.5,0.22359,0.5,0.5v4.9883C248.59378,235.01559,248.37009,235.2393,248.09378,235.2393z"/>
		</g>
		<g>
			<path fill="#454545" d="M233.15819,231.3506h-0.3555c-11.54291,0-16.3203,0-16.3203-3.0352
				c0-6.248,6.0752-10.0332,16.25389-10.1328c0.0215-0.00191,0.04401-0.00391,0.06641-0.00391l0.1778,0.002
				c0.05661,0,0.11911,0.0097,0.18161,0.0273v-0.02539c10.2168,0.084,16.31639,3.87109,16.31639,10.1328
				C249.47849,231.3506,244.70119,231.3506,233.15819,231.3506z M232.97069,219.15331c-0.0508,0.0186-0.1064,0.0293-0.16409,0.0293
				c-9.5957,0.07809-15.3242,3.4922-15.3242,9.1328c0,2.0352,5.44139,2.0352,15.3203,2.0352h0.3555
				c9.87891,0,15.3203,0,15.3203-2.0352c0-5.64059-5.72849-9.0547-15.3242-9.1328c-0.0186,0-0.03609-0.00191-0.0537-0.00391
				l-0.1201,0.002L232.97069,219.15331z"/>
		</g>
		<g>
			<path fill="#454545" d="M233.15918,240.3311c-0.00099,0-0.00099,0-0.00099,0h-0.3555
				c-11.0576-0.0137-16.3203-0.62109-16.3203-4.0332c0-0.68269,0.34669-1.334,1.0313-1.93359
				c0.1259-0.1123,0.2998-0.1524,0.4619-0.1075c2.1523,0.58989,8.04201,0.97069,15.0049,0.97069
				c6.96381,0,12.85251-0.3808,15.0029-0.97069c0.1611-0.04291,0.33501-0.00481,0.4619,0.1075
				c0.68561,0.6015,1.0332,1.25189,1.0332,1.93359C249.47849,239.71001,244.21579,240.3174,233.15918,240.3311z
				 M217.98828,235.29201c-0.336,0.3418-0.50589,0.67969-0.50589,1.00589c0,2.5332,5.3848,3.02051,15.32129,3.0332h0.3535
				c9.9366-0.0127,15.3213-0.5,15.3213-3.0332c0-0.3252-0.16989-0.6631-0.5058-1.00589
				c-2.87801,0.6875-9.56641,0.93549-14.9922,0.93549S220.86519,235.97951,217.98828,235.29201z"/>
		</g>
		<g>
			<path fill="#454545" d="M233.03128,234.6514c-0.03619,0-0.07428,0-0.11328,0c-0.791,0-1.93462-0.209-2.795-0.5157
				c-2.42181-0.8613-5.11232-1.1904-7.19621-0.8867c-1.96201,0.291-4.2041-0.0898-5.1055-0.86719
				c-0.377-0.3242-0.4561-0.66011-0.4561-0.8847c0-0.2764,0.22369-0.5,0.5-0.5c0.2764,0,0.5,0.2236,0.5,0.5
				c0.08209,0.3847,2.1221,1.1015,4.4151,0.7636c2.2724-0.33389,5.0703,0.00591,7.67871,0.93361
				c0.76949,0.2735,1.83301,0.4493,2.51459,0.45709c0.70801-0.0078,1.7598-0.18359,2.52841-0.45709
				c2.60838-0.9277,5.40518-1.2695,7.6787-0.93361c2.29289,0.33791,4.33099-0.37889,4.41309-0.7675
				c0-0.27539,0.2236-0.49809,0.5-0.49809c0.27631,0,0.5,0.2256,0.5,0.502c0,0.22459-0.07919,0.5605-0.4561,0.8847
				c-0.90039,0.77739-3.14159,1.15819-5.1035,0.86719c-2.0869-0.30759-4.77539,0.02541-7.19629,0.8867
				C234.97749,234.4424,233.834,234.6514,233.03128,234.6514z"/>
		</g>
		<g>
			<path fill="#454545" d="M223.08009,228.72749c-0.16991,0-0.336-0.0869-0.4297-0.24409
				c-0.1416-0.2363-0.06351-0.543,0.17279-0.6855l1.5137-0.9043c0.2363-0.1407,0.54401-0.0645,0.68651,0.1738
				c0.1416,0.2363,0.06349,0.543-0.17281,0.6855l-1.5137,0.9043C223.25589,228.7041,223.168,228.72749,223.08009,228.72749z"/>
		</g>
		<g>
			<path fill="#454545" d="M225.14259,223.97169c-0.1387,0-0.27641-0.0576-0.37601-0.16989
				c-0.18158-0.20711-0.1611-0.5235,0.0459-0.70511l1.3242-1.16409c0.20709-0.18361,0.5215-0.16211,0.7061,0.04489
				c0.18159,0.20711,0.1611,0.52351-0.0459,0.70511l-1.3242,1.16409C225.37788,223.93069,225.25978,223.97169,225.14259,223.97169z"
				/>
		</g>
		<g>
			<path fill="#454545" d="M228.46478,227.7334c-0.07809,0-0.15819-0.01759-0.23239-0.05659
				c-0.24411-0.12891-0.33881-0.43071-0.21091-0.6758l0.8183-1.5625c0.129-0.2442,0.4317-0.33791,0.67581-0.21101
				c0.24419,0.12891,0.3389,0.43071,0.211,0.67581l-0.81841,1.5625C228.81839,227.6357,228.64449,227.7334,228.46478,227.7334z"/>
		</g>
		<g>
			<path fill="#454545" d="M230.14839,222.2881c-0.1777,0-0.35051-0.0957-0.44139-0.2637
				c-0.12991-0.24409-0.03812-0.54691,0.20609-0.6777l1.5527-0.83009c0.2383-0.1279,0.54489-0.03911,0.6768,0.20509
				c0.1299,0.24411,0.0381,0.54691-0.2061,0.6777l-1.5527,0.83011C230.30959,222.2686,230.22849,222.2881,230.14839,222.2881z"/>
		</g>
		<g>
			<path fill="#454545" d="M234.28709,228.7939c-0.10451,0-0.209-0.0322-0.29881-0.09959l-1.41209-1.0527
				c-0.22169-0.16411-0.2666-0.4785-0.10159-0.6992c0.16409-0.22169,0.4785-0.26559,0.69919-0.10159l1.41211,1.0528
				c0.22169,0.164,0.2666,0.4785,0.10159,0.6992C234.58978,228.72459,234.43948,228.7939,234.28709,228.7939z"/>
		</g>
		<g>
			<path fill="#454545" d="M235.94139,224.71001c-0.0576,0-0.1152-0.00981-0.17191-0.03131l-1.6543-0.60739
				c-0.2597-0.09471-0.3925-0.38181-0.29781-0.64061c0.0957-0.2598,0.38571-0.39259,0.64162-0.29689l1.65428,0.60739
				c0.25972,0.09471,0.39261,0.38181,0.29781,0.64061C236.33688,224.58501,236.14549,224.71001,235.94139,224.71001z"/>
		</g>
		<g>
			<path fill="#454545" d="M239.08009,222.5576c-0.06551,0-0.13091-0.0127-0.19441-0.039l-1.623-0.68561
				c-0.2549-0.10739-0.37399-0.40039-0.26659-0.65529c0.1084-0.25481,0.40329-0.37201,0.65529-0.2666l1.623,0.68559
				c0.2549,0.10741,0.37401,0.40041,0.26662,0.6553C239.46001,222.4424,239.27438,222.5576,239.08009,222.5576z"/>
		</g>
		<g>
			<path fill="#454545" d="M243.80078,224.6494c-0.1299,0-0.25978-0.0508-0.35739-0.15041l-1.2305-1.25969
				c-0.19341-0.1973-0.1895-0.5137,0.0078-0.70711c0.1992-0.19139,0.51559-0.18939,0.707,0.0078l1.2305,1.25981
				c0.19341,0.1973,0.1895,0.5137-0.0078,0.707C244.05269,224.60249,243.92679,224.6494,243.80078,224.6494z"/>
		</g>
		<g>
			<path fill="#454545" d="M244.53128,228.4697c-0.14949,0-0.29689-0.06639-0.3956-0.1933l-1.07809-1.39259
				c-0.1689-0.21881-0.12891-0.5332,0.0899-0.70221c0.21579-0.1689,0.5302-0.12979,0.7011,0.0889l1.0782,1.39261
				c0.1689,0.2187,0.12891,0.5332-0.0899,0.7021C244.74609,228.4355,244.63869,228.4697,244.53128,228.4697z"/>
		</g>
		<g>
			<path fill="#454545" d="M239.08009,228.5322c-0.07031,0-0.14061-0.0146-0.209-0.04489
				c-0.25101-0.1152-0.36041-0.41211-0.24509-0.66411l0.73438-1.59959c0.1152-0.25191,0.41011-0.3593,0.66301-0.24611
				c0.25099,0.11531,0.3604,0.41211,0.24519,0.66411l-0.73441,1.59959C239.45018,228.4248,239.26949,228.5322,239.08009,228.5322z"
				/>
		</g>
		<g>
			<path fill="#454545" d="M220.63089,227.0947c-0.12601,0-0.252-0.0468-0.34871-0.1416
				c-0.19818-0.1924-0.20209-0.50879-0.00969-0.707l1.22852-1.26169c0.19528-0.1983,0.51167-0.20021,0.70699-0.00981
				c0.19829,0.19241,0.20219,0.5088,0.0098,0.707l-1.2285,1.26181C220.89059,227.0439,220.76068,227.0947,220.63089,227.0947z"/>
		</g>
	</g>
	<g>
		<g>
			<path fill="#454545" d="M282.9834,46.2456c-6.06931,0-10.47461-4.0352-10.47461-9.5947c0-1.0791,0.16211-2.1411,0.48239-3.1563
				c0.47171-1.4277,1.3652-2.9863,2.22949-4.4931c0.89062-1.5533,1.73242-3.0205,2.07233-4.2369
				c0.06049-0.2177,0.11908-0.4497,0.18057-0.6909c0.52353-2.0781,1.31552-5.2177,5.50983-5.2177
				c4.19427,0,4.9863,3.1396,5.51068,5.2177c0.06061,0.2412,0.1192,0.4732,0.17972,0.6905
				c0.34079,1.2158,1.1817,2.6821,2.07129,4.2343c0.86429,1.5078,1.75879,3.0674,2.22849,4.4898
				c0.3233,1.0259,0.48642,2.0874,0.48642,3.1626C293.45999,42.2104,289.05368,46.2456,282.9834,46.2456z M282.9834,19.856
				c-3.41501,0-4.0137,2.3706-4.54102,4.4619c-0.0625,0.2505-0.12311,0.4907-0.18649,0.7158
				c-0.37311,1.3354-1.2442,2.854-2.16611,4.4619c-0.83978,1.4648-1.70801,2.98-2.14551,4.3062
				c-0.28799,0.9096-0.43549,1.8701-0.43549,2.8491c0,4.98,3.98441,8.5947,9.47461,8.5947c5.49118,0,9.47659-3.6147,9.47659-8.5947
				c0-0.9732-0.14749-1.9336-0.4375-2.8555c-0.43661-1.3198-1.30472-2.8345-2.14459-4.2993
				c-0.92181-1.6079-1.79291-3.1265-2.16702-4.4624c-0.06339-0.2251-0.12399-0.4653-0.18649-0.7158
				C286.9971,22.2266,286.39838,19.856,282.9834,19.856z"/>
		</g>
		<g>
			<path fill="#454545" d="M282.9834,19.856c-0.01071,0-0.02151-0.0005-0.03223-0.001c-0.27539-0.0176-0.48438-0.2554-0.4668-0.5313
				c0.01071-0.1689,0.2724-4.1591,0.83691-5.7456c0.0918-0.2597,0.38278-0.3945,0.63773-0.3037
				c0.26068,0.0923,0.39648,0.3784,0.30368,0.6387c-0.5166,1.4556-0.77731,5.435-0.7803,5.4751
				C283.46579,19.6528,283.24509,19.856,282.9834,19.856z"/>
		</g>
	</g>
	<g>
		<g>
			<path fill="#454545" d="M285.92188,143.77c-4.1875,0-8.49899-1.90871-11.82718-5.2363
				c-4.40521-4.40721-6.24802-10.4902-4.69431-15.49711c0.13962-0.4507,0.02341-1.0864-0.09961-1.7597
				c-0.2442-1.3345-0.54788-2.9952,0.88571-4.4278c0.7305-0.7304,1.60352-1.0859,2.66989-1.0859
				c0.60449,0,1.1778,0.1079,1.7334,0.2119c0.69241,0.1304,1.3399,0.2305,1.7413,0.103c1.1669-0.3667,2.41602-0.5532,3.71381-0.5532
				c4.1875,0,8.4971,1.9082,11.8233,5.2354c4.82419,4.8222,6.5332,11.5302,4.25189,16.69231
				c-0.10739,0.24319,0.04199,0.7061,0.2002,1.19629c0.336,1.0415,0.79691,2.46831-0.5361,3.7993
				c-0.60059,0.6006-1.27539,0.89261-2.06351,0.89261c-0.63089,0-1.21967-0.18991-1.73828-0.35791
				c-0.49512-0.1601-0.9707-0.3008-1.1933-0.2007C289.30759,143.4375,287.66989,143.7695,285.92188,143.77z M272.85638,116.7632
				c-0.79779,0-1.42178,0.2519-1.9628,0.793c-1.0625,1.062-0.8418,2.26611-0.60941,3.541
				c0.14651,0.7973,0.28421,1.5503,0.07132,2.2358c-1.44531,4.6567,0.29977,10.3457,4.44629,14.49371
				c3.14249,3.1416,7.19531,4.9433,11.12009,4.9433c1.60742-0.0005,3.10941-0.30371,4.46292-0.9028
				c0.5224-0.23241,1.21088-0.0601,1.90521,0.16409c0.47067,0.1523,0.95709,0.30951,1.43066,0.30951
				c0.5166,0,0.94733-0.1904,1.35641-0.6001c0.90039-0.89841,0.60449-1.81491,0.29111-2.78461
				c-0.21881-0.67731-0.4248-1.31689-0.16211-1.90871c2.1152-4.78619,0.4892-11.04739-4.04501-15.58009
				c-3.14059-3.1406-7.19229-4.9424-11.11618-4.9424c-1.19632,0-2.3447,0.1709-3.41312,0.5073
				c-0.60538,0.18999-1.40228,0.08009-2.2265-0.0742C273.89548,116.8623,273.36719,116.7632,272.85638,116.7632z"/>
		</g>
	</g>
	<g>
		<g>
			<path fill="#454545" d="M283.61819,196.1982h-1.26761c-4.1738,0-4.9082-0.3476-4.9082-2.3242c0-0.52629,0-1.0976,0.18939-1.4287
				V178.291c-0.18939-0.3056-0.18939-0.8027-0.18939-1.1201L277.44138,177c-0.00778-1.0703,0.17871-1.19431,1.6279-2.1582
				c0.60452-0.4023,1.05472-0.85739,1.41022-1.40039c0.00681-0.0088,0.12988-0.25,0.0303-0.9463
				c-0.16312-1.08591-0.38971-2.59081,0.56149-4.6748c0.2207-0.4785,0.00189-0.9883-0.00101-0.99319
				c-0.06738-0.15421-0.05371-0.3349,0.03812-0.4765c0.09277-0.1416,0.24899-0.2285,0.418-0.2285h2.91208
				c0.16992,0,0.3291,0.08589,0.4209,0.22949c0.0918,0.14351,0.10452,0.3242,0.0332,0.4785c0,0.00101-0.21878,0.5117,0,0.98921
				c0.9599,2.08499,0.73343,3.58989,0.58401,4.586c-0.1192,0.78419,0.0058,1.02339,0.00681,1.02629
				c0.35938,0.5498,0.80859,1.0049,1.34277,1.3623c1.5195,1.0088,1.707,1.1338,1.69922,2.2012l-0.00101,0.1758
				c0,0.40919-0.02829,0.69341-0.08978,0.8936c-0.02643,0.0869-0.0596,0.1582-0.09772,0.2168v14.1669
				c0.1875,0.3311,0.1875,0.9014,0.1875,1.4258C288.52438,195.8506,287.79099,196.1982,283.61819,196.1982z M278.48538,193.0264
				c-0.01859,0.1172-0.043,0.3632-0.043,0.8476c0,1.06941,0,1.3242,3.9082,1.3242h1.26761c3.90619,0,3.90619-0.25479,3.90619-1.3242
				c0-0.48529-0.02438-0.73239-0.043-0.84959c-0.09079-0.0918-0.1445-0.2178-0.1445-0.3515v-14.6192
				c0-0.14059,0.05859-0.2724,0.15921-0.3662c0.0127-0.08591,0.02829-0.24409,0.02829-0.5166l0.00101-0.18359
				c0.00391-0.5264,0.00391-0.5264-1.19138-1.31931c-0.71191-0.47659-1.25494-1.0274-1.67972-1.6797
				c-0.08112-0.086-0.34772-0.5332-0.18073-1.6387c0.16122-1.07619,0.3457-2.2988-0.4892-4.11229
				c-0.18259-0.3994-0.20709-0.79491-0.17679-1.1152h-1.65039c0.03229,0.3203,0.0069,0.71581-0.1767,1.1152
				c-0.82721,1.8125-0.64261,3.0352-0.49512,4.0186c0.17181,1.1982-0.08789,1.6425-0.20609,1.78319
				c-0.39362,0.6064-0.93851,1.15721-1.58301,1.58691c-1.25879,0.8369-1.25879,0.8369-1.25491,1.3662l0.00101,0.1787
				c0,0.2715,0.01562,0.4297,0.02829,0.5146c0.10162,0.0938,0.1611,0.22659,0.1611,0.36819v14.6192
				C278.63177,192.8076,278.57709,192.93359,278.48538,193.0264z"/>
		</g>
		<g>
			<path fill="#454545" d="M284.72748,167.1221h-3.4863c-0.2764,0-0.5-0.22369-0.5-0.5v-2.5899c0-0.2285,0-0.834,2.2442-0.834
				c2.2421,0,2.2421,0.6055,2.2421,0.834v2.5899C285.22748,166.89841,285.00388,167.1221,284.72748,167.1221z M281.74118,166.1221
				h2.4863v-1.81351c-0.2207-0.05179-0.6416-0.1104-1.2421-0.1104c-0.60159,0-1.0235,0.05861-1.2442,0.1114V166.1221z"/>
		</g>
	</g>
	<g>
		<g>
			
				<ellipse transform="matrix(0.70637 -0.70784 0.70784 0.70637 2.89525 143.54347)" fill="#454545" cx="174.46484" cy="68.282" rx="0.98334" ry="0.98369"/>
		</g>
		<g>
			<path fill="#454545" d="M191.30659,96.1108c-0.40721,0-0.9726-0.311-1.3535-1.7915c-0.4218-1.24509-1.0849-3.8828-1.291-4.71239
				c-7.1055-2.8598-12.9922-7.60741-15.36909-9.98431c-6.01662-6.0162-6.43071-10.7662-6.67781-13.604L166.584,65.668
				c-0.01862-0.2032,0.08789-0.397,0.26949-0.4903c0.1797-0.0937,0.40041-0.0673,0.55571,0.06641l2.7197,2.3501l-1.3232-3.8198
				c-0.05769-0.1665-0.0235-0.3511,0.0898-0.4858c0.1133-0.1343,0.2861-0.1978,0.4639-0.1714
				c3.66499,0.5996,8.1133,1.9145,13.31931,7.1206c2.3779,2.3789,7.127,8.2671,9.9834,15.3682
				c0.83009,0.20599,3.47269,0.8715,4.74809,1.3017c1.5029,0.3858,1.7861,0.9776,1.7529,1.4043
				c-0.04689,0.6006-0.6924,0.9653-1.91699,1.0845c-1.5898,0.1533-3.21091,0.8662-3.6992,1.0957
				c-0.22951,0.4883-0.94141,2.10889-1.0957,3.6982C192.32709,95.4644,191.94238,96.1108,191.30659,96.1108z M167.69339,66.812
				c0.289,2.7544,1.1337,6.93021,6.30661,12.1035c2.34959,2.34911,8.209,7.0689,15.26949,9.85741
				c0.1514,0.05959,0.2637,0.1885,0.3018,0.3462c0.0088,0.03419,0.84959,3.4639,1.3398,4.9156
				c0.12991,0.5034,0.2657,0.7954,0.3623,0.9507c0.0625-0.1587,0.1377-0.4395,0.1817-0.89159
				c0.20309-2.084,1.22749-4.1172,1.2715-4.20271c0.04779-0.0942,0.12399-0.1709,0.21869-0.2192
				c0.08501-0.0435,2.12111-1.0694,4.2041-1.2705c0.45311-0.044,0.7334-0.1197,0.89162-0.1831
				c-0.15141-0.0962-0.43552-0.229-0.916-0.3526c-1.48631-0.5-4.916-1.3418-4.95122-1.3501
				c-0.1572-0.03851-0.28609-0.1513-0.34569-0.3022c-2.7851-7.0557-7.50581-12.9175-9.8564-15.2686
				c-4.61621-4.6162-8.59961-6.0478-11.94241-6.6928l1.65331,4.7744c0.0742,0.2138-0.0049,0.4507-0.1924,0.5776
				c-0.1875,0.12601-0.4355,0.11131-0.60741-0.0356L167.69339,66.812z"/>
		</g>
	</g>
	<g>
		<g>
			<path fill="#454545" d="M82.61909,240.0791c-10.02341,0-16.5-4.4863-16.5-11.4297c0-5.7305,7.24809-10.2187,16.5-10.2187
				c9.252,0,16.49999,4.4882,16.49999,10.2187C99.11909,235.5928,92.64259,240.0791,82.61909,240.0791z M82.61909,219.43069
				c-8.69141,0-15.5,4.04881-15.5,9.2187c0,6.336,6.084,10.4297,15.5,10.4297c9.4161,0,15.49999-4.0937,15.49999-10.4297
				C98.11909,223.47951,91.31049,219.43069,82.61909,219.43069z"/>
		</g>
		<g>
			<path fill="#454545" d="M82.61909,226.9346c-0.9502,0-1.873-0.1114-2.7431-0.3311
				c-0.26761-0.0674-0.42971-0.3398-0.36141-0.60741c0.06651-0.26659,0.3301-0.43159,0.60751-0.36229
				c1.57809,0.40039,3.41791,0.39839,4.9902,0c0.2695-0.07231,0.5391,0.0947,0.6074,0.3613
				c0.06841,0.26759-0.09369,0.5401-0.3613,0.60739C84.49119,226.8232,83.57029,226.9346,82.61909,226.9346z"/>
		</g>
		<g>
			<path fill="#454545" d="M88.24019,234.5986c-0.3144,0-0.6504-0.01851-1.0097-0.05861
				c-3.3496-0.36909-3.52049-0.4023-6.378-0.97069l-0.9502-0.1875c-1.7617-0.3486-3.0312-0.13861-4.2597,0.0645
				c-1.31741,0.2168-2.6807,0.4433-4.4942-0.0742c-3.1709-0.9024-4.7617-2.19141-5.0068-4.0537
				c-0.0352-0.2735,0.1572-0.52451,0.43069-0.56061c0.2646-0.0361,0.52541,0.1553,0.5615,0.43071
				c0.11721,0.89259,0.6885,2.19719,4.2891,3.22169c1.5966,0.455,2.7353,0.2666,4.0566,0.0498
				c1.2559-0.20711,2.6797-0.44141,4.6162-0.0596l0.9522,0.18849c2.8173,0.55951,2.9863,0.5927,6.2919,0.957
				c2.1348,0.2383,3.2129-0.3457,4.5811-1.07809c0.834-0.44731,1.7793-0.9532,3.0654-1.3008
				c2.8653-0.77541,3.127-2.50391,3.13671-2.57811c0.03519-0.2715,0.27449-0.4698,0.55569-0.43359
				c0.2715,0.0332,0.4668,0.27539,0.4375,0.54779c-0.0107,0.1006-0.30859,2.46681-3.86819,3.42871
				c-1.17671,0.31839-2.02921,0.77539-2.85441,1.2168C91.19919,233.9893,90.06049,234.5986,88.24019,234.5986z"/>
		</g>
	</g>
	<g>
		<g>
			<path fill="#454545" d="M282.98239,245.7549c-2.37012,0-6.3457-0.18649-6.3457-1.4375l-2.64261-27.8418l0.99609-0.0947
				l2.63281,27.77139c0.418,0.2305,2.24319,0.6026,5.35941,0.6026c3.12311,0,4.9502-0.37309,5.36328-0.6035l2.63092-27.77049
				l0.99609,0.0947l-2.64459,27.8887C289.33008,245.56841,285.35349,245.7549,282.98239,245.7549z"/>
		</g>
		<g>
			<path fill="#454545" d="M292.05658,216.9287h-18.14841l0.44141-2.83589c-0.0058-0.8614,2.90042-1.33791,8.63281-1.33791
				c5.73828,0,8.6485,0.4765,8.6485,1.416L292.05658,216.9287z M275.07419,215.9287h15.81839l-0.2334-1.53419
				c-0.63669-0.27631-3.5401-0.6396-7.67679-0.6396c-4.14551,0-7.05081,0.3652-7.6738,0.64261L275.07419,215.9287z"/>
		</g>
		<g>
			<path fill="#454545" d="M292.7988,216.9287H273.168c-0.27643,0-0.5-0.22459-0.5-0.5c0-0.2773,0.22357-0.5,0.5-0.5h19.6308
				c0.2764,0,0.5,0.2227,0.5,0.5C293.2988,216.7041,293.0752,216.9287,292.7988,216.9287z"/>
		</g>
	</g>
	<g>
		<g>
			<path fill="#454545" d="M33.31149,196.1982c-4.0898,0-6.5312-0.8183-6.5312-2.18939l-1.4278-16.28711
				c-0.1084-1.2549-0.2861-1.7227-0.4736-2.2188c-0.1953-0.5166-0.3975-1.0498-0.501-2.33299
				c-0.0888-1.12111,0.1075-1.9756,0.2383-2.541c0.0459-0.1992,0.0977-0.42581,0.09381-0.50491
				c-0.05371-0.98529-0.33211-4.3125-0.33211-4.3125c-0.00189-1.4599,4.0078-2.6133,8.9356-2.6133
				c4.9267,0,8.93551,1.1534,8.93551,2.5723c-0.00191,0.04201-0.27831,3.36911-0.334,4.35451
				c-0.00391,0.07809,0.04789,0.3037,0.09379,0.5029c0.1308,0.56551,0.3291,1.42,0.2383,2.54201
				c-0.1035,1.28319-0.3057,1.81639-0.501,2.33299c-0.1875,0.49609-0.3652,0.9639-0.4736,2.2188l-1.4297,16.33011
				C39.84469,195.3799,37.40229,196.1982,33.31149,196.1982z M25.36819,165.8223c0.0175,0.04001,0.2871,3.27541,0.33981,4.24701
				c0.01269,0.22069-0.04491,0.46979-0.11721,0.78419c-0.124,0.5361-0.2929,1.2695-0.21679,2.2363
				c0.09279,1.1416,0.26169,1.58701,0.43949,2.05861c0.2041,0.53809,0.415,1.09479,0.5351,2.48729l1.4297,16.3291
				c0.002,0.34871,1.3633,1.2334,5.5332,1.2334c4.1709,0,5.5332-0.88469,5.5332-1.18939l1.4317-16.37401
				c0.1201-1.3916,0.331-1.9483,0.5351-2.48639c0.1778-0.4716,0.3467-0.91701,0.43951-2.05861
				c0.07709-0.9677-0.09181-1.7011-0.21581-2.2363c-0.0733-0.31441-0.1309-0.56351-0.11819-0.78419
				c0.05569-0.9922,0.334-4.34081,0.334-4.34081c-0.20311-0.35249-2.96391-1.5303-7.93751-1.5303
				C28.34469,164.1982,25.584,165.373,25.36819,165.8223z"/>
		</g>
		<g>
			<path fill="#454545" d="M41.585,168.2197H25.041c-0.27641,0-0.5-0.2236-0.5-0.5c0-0.27629,0.22359-0.5,0.5-0.5h16.544
				c0.27629,0,0.5,0.22371,0.5,0.5C42.085,167.99609,41.86129,168.2197,41.585,168.2197z"/>
		</g>
	</g>
	<g>
		<g>
			<path fill="#454545" d="M20.42089,146.1196c-0.6055,0-1.3857-0.28369-2.3184-1.21429
				c-0.68549-0.6812-1.0879-1.354-1.1943-1.99861c-0.1035-0.62639,0.082-1.2148,0.5225-1.6572l14.0048-12.68019l0.6719,0.7412
				l-13.9863,12.6622c-0.1982,0.19969-0.2783,0.4575-0.2266,0.771c0.0713,0.4272,0.3868,0.9296,0.9131,1.45309
				c0.4385,0.43701,1.5313,1.37251,2.2451,0.6611l12.5889-14.0195l0.7441,0.66791l-12.6074,14.03909
				C21.58109,145.7437,21.11719,146.1196,20.42089,146.1196z"/>
		</g>
		<g>
			<path fill="#454545" d="M34.36819,131.52541l-0.709-0.7061c5.0254-5.0444,6.33881-8.5854,8.6064-15.87691l-2.0664-0.64059
				c-2.2109,7.1113-3.3916,10.2895-8.07319,14.9912l-0.709-0.7061c4.61819-4.6372,5.71869-7.7773,7.97559-15.0586
				c0.081-0.26369,0.35641-0.41109,0.626-0.3296l3.02141,0.9366c0.126,0.039,0.23249,0.1269,0.294,0.2446
				c0.06149,0.1172,0.07419,0.2544,0.03509,0.3808C40.958,122.5405,39.668,126.2041,34.36819,131.52541z"/>
		</g>
		<g>
			<path fill="#454545" d="M34.36819,131.52541l-0.709-0.7061c4.6787-4.69771,7.8535-5.89111,14.959-8.13181l-0.6504-2.0659
				c-3.1924,1.0073-5.6612,1.8247-7.8604,2.8569l-0.4258-0.9053c2.3653-1.10979,5-1.96629,8.4629-3.0556
				c0.2686-0.0801,0.5459,0.0635,0.627,0.3271l0.9502,3.0196c0.04,0.1264,0.02831,0.2636-0.0332,0.3808
				c-0.06149,0.1177-0.167,0.2061-0.293,0.2461C42.11909,125.7783,38.98239,126.8911,34.36819,131.52541z"/>
		</g>
		<g>
			<path fill="#454545" d="M43.97559,121.8809l-0.709-0.7061l3.376-3.3896l-1.5342-1.5269l-3.375,3.3882l-0.709-0.7061
				l3.7285-3.7422c0.1953-0.1962,0.5117-0.19579,0.70711-0.0014l2.24209,2.2324c0.0938,0.0937,0.1475,0.2207,0.1475,0.3535
				c0,0.1323-0.0517,0.2598-0.1455,0.354L43.97559,121.8809z"/>
		</g>
	</g>
	<g>
		<g>
			<path fill="#454545" d="M44.333,96.002c-0.73831,0-1.43261-0.2876-1.95511-0.8101c-0.3222-0.3159-0.7363-0.7222-0.9687-2.0425
				l-0.044-0.2641c-0.1543-0.9429-0.3857-2.3672-1.6074-3.5879c-0.0693-0.0694-0.1543-0.1587-0.2549-0.2657
				c-0.71089-0.7553-2.37689-2.5239-6.1445-4.6464c-1.1152-0.6275-2.5059-1.1373-3.9775-1.6773
				c-4.1211-1.5107-9.2491-3.3911-11.7618-9.2607c-1.5117-3.5342-0.3457-6.5855,1.2491-8.26221
				c2.0937-1.9937,5.3584-2.5186,8.2812-1.2671c5.8682,2.5107,7.7481,7.6382,9.2588,11.7583
				c0.541,1.4731,1.05081,2.8647,1.6797,3.9809c2.124,3.7715,3.8935,5.4366,4.6484,6.1475
				c0.1055,0.09959,0.1944,0.1831,0.26371,0.2524c1.21879,1.2198,2.64359,1.45271,3.58589,1.6065l0.2657,0.0444
				c1.3183,0.231,1.7246,0.6445,1.9931,0.918c1.126,1.1279,1.126,2.8818,0.0489,3.9604c-0.336,0.33649-1,0.8072-1.6114,0.9966
				c-0.1884,0.6104-0.65919,1.273-0.9961,1.6094C45.76459,95.7144,45.07129,96.002,44.333,96.002z M23.86619,64.2197
				c-1.6094,0-3.1738,0.6094-4.291,1.67239c-1.3584,1.4282-2.3574,4.0737-1.0361,7.16161
				c2.3418,5.47269,7.041,7.1953,11.1865,8.7158c1.5107,0.5537,2.9375,1.0772,4.123,1.7447
				c3.90041,2.1967,5.6397,4.0434,6.3828,4.8315c0.0918,0.0981,0.169,0.1802,0.2334,0.24409
				c1.4493,1.4488,1.7237,3.1304,1.8868,4.1348l0.042,0.25249c0.1767,1.00291,0.4209,1.24261,0.6367,1.45361
				c0.7763,0.7744,1.8818,0.7216,2.5488,0.0547c0.3662-0.36629,0.75491-1.043,0.7852-1.3677
				c0.0195-0.2114,0.1709-0.3877,0.3769-0.439c0.4024-0.04491,1.0801-0.4341,1.4453-0.7993c0.68751-0.6885,0.68751-1.8086,0-2.4971
				c-0.2656-0.27-0.5049-0.5136-1.5068-0.6889l-0.2549-0.043c-1.0049-0.1641-2.6855-0.4385-4.13179-1.8862
				c-0.06351-0.0635-0.14461-0.1402-0.24221-0.2315c-0.7881-0.7422-2.63479-2.4805-4.834-6.3843
				c-0.6689-1.187-1.1924-2.6157-1.7471-4.1279c-1.5195-4.1445-3.2422-8.8423-8.7129-11.1836
				C25.79879,64.4272,24.82619,64.2197,23.86619,64.2197z"/>
		</g>
		<g>
			<path fill="#454545" d="M37.55659,87.063c-0.0468,0-0.0957-0.00681-0.1425-0.021c-0.2647-0.0791-0.41509-0.3574-0.337-0.6221
				c0.0274-0.0898,0.6827-2.2099,2.9024-3.1421c0.2529-0.1059,0.5478,0.01369,0.6543,0.2671
				c0.1074,0.2549-0.0127,0.5479-0.2676,0.6548c-1.7881,0.7515-2.32519,2.4888-2.3301,2.5064
				C37.97069,86.9229,37.77249,87.063,37.55659,87.063z"/>
		</g>
	</g>
	<g>
		<g>
			<path fill="#454545" d="M238.59079,96.1108h-11.2207c-0.27631,0-0.5-0.2236-0.5-0.5V70.5264c0-0.2764,0.22369-0.5,0.5-0.5
				h11.2207c0.2764,0,0.5,0.2236,0.5,0.5v25.0844C239.09079,95.8872,238.86719,96.1108,238.59079,96.1108z M227.87009,95.1108
				h10.2207V71.0264h-10.2207V95.1108z"/>
		</g>
		<g>
			<path fill="#454545" d="M227.37009,71.0264c-0.1367,0-0.2724-0.05569-0.37109-0.1651c-0.1855-0.20499-0.1689-0.521,0.03619-0.706
				l5.4462-4.9136v-1.6313c0-0.2764,0.22371-0.5,0.5-0.5c0.2764,0,0.5,0.2236,0.5,0.5v1.8535
				c0,0.1416-0.05949,0.2763-0.16499,0.3711l-5.6113,5.0625C227.60939,70.9839,227.48929,71.0264,227.37009,71.0264z"/>
		</g>
		<g>
			<path fill="#454545" d="M238.59079,71.0264c-0.11911,0-0.2392-0.0425-0.3349-0.1289l-5.60941-5.0625
				c-0.10548-0.0948-0.1651-0.2295-0.1651-0.3711v-1.8535c0-0.2764,0.22371-0.5,0.5-0.5c0.2764,0,0.5,0.2236,0.5,0.5v1.6313
				l5.4444,4.9136c0.20511,0.18501,0.22171,0.50101,0.0361,0.706C238.86328,70.9707,238.72749,71.0264,238.59079,71.0264z"/>
		</g>
		<g>
			<path fill="#454545" d="M236.76369,69.3779c-0.12309,0-0.24319-0.0459-0.33501-0.1289l-1.95599-1.7656
				c-0.09869-0.0889-0.1573-0.2134-0.16409-0.3457c-0.00681-0.1323,0.03909-0.2622,0.1279-0.3608l1.13869-1.2598
				c0.1846-0.20409,0.50101-0.2207,0.7061-0.03609l1.95601,1.7617c0.0986,0.0888,0.1572,0.2129,0.16409,0.3457
				c0.00681,0.1323-0.03909,0.2622-0.12799,0.3603l-1.13861,1.2637c-0.0889,0.09859-0.21289,0.1582-0.34569,0.165
				C236.78128,69.3779,236.77249,69.3779,236.76369,69.3779z M235.51369,67.0762l1.21381,1.0952l0.4688-0.5205l-1.2139-1.0928
				L235.51369,67.0762z"/>
		</g>
	</g>
	<g>
		<g>
			<path fill="#454545" d="M132.98628,245.7549c-0.22949,0-0.4287-0.1563-0.48528-0.3779l-5.48151-21.81349
				c-0.06641-0.2686,0.0957-0.5401,0.3633-0.60741c0.2676-0.0704,0.5391,0.0957,0.6074,0.3632l4.99609,19.88379l4.99611-19.88379
				c0.0674-0.2675,0.336-0.43161,0.60739-0.3632c0.26761,0.06731,0.4297,0.33881,0.36331,0.60741l-5.4814,21.81349
				C133.41499,245.5986,133.21579,245.7549,132.98628,245.7549z"/>
		</g>
		<g>
			<path fill="#454545" d="M132.98628,224.7822h-0.00089h-0.00101l0,0c-4.40919,0-5.6573-0.8457-5.7852-0.9424
				c-0.5937-0.3593-0.97359-1.0351-0.97359-1.77831c0-0.7011,0.3418-1.34079,0.89941-1.7285
				c-0.12991-0.49899-0.19531-1.0098-0.19531-1.52339c0-3.33791,2.71581-6.0547,6.0547-6.0547
				c3.3398,0,6.05661,2.7168,6.05661,6.0547c0,0.5175-0.06541,1.02831-0.19431,1.52339c0.5576,0.3887,0.90039,1.0274,0.90039,1.7285
				c0,0.73151-0.38969,1.4239-1.0166,1.8067C138.64359,223.93649,137.39549,224.7822,132.98628,224.7822L132.98628,224.7822z
				 M132.98628,213.7549c-2.78809,0-5.05659,2.26761-5.05659,5.0547c0,0.54491,0.08791,1.08589,0.2627,1.60741
				c0.08301,0.24799-0.041,0.51949-0.2832,0.61909c-0.4151,0.17189-0.68359,0.5743-0.68359,1.02539
				c0,0.3916,0.2002,0.74811,0.53609,0.95311c0.041,0.0274,1.1778,0.76759,5.22371,0.76759c4.0459,0,5.1826-0.74019,5.1933-0.748
				c0.36719-0.2256,0.56839-0.58209,0.56839-0.9727c0-0.4511-0.2686-0.85249-0.68559-1.02539
				c-0.2431-0.09961-0.3662-0.37201-0.2822-0.62111c0.1738-0.51559,0.2617-1.0546,0.2617-1.60539
				C138.041,216.02251,135.77339,213.7549,132.98628,213.7549z"/>
		</g>
	</g>
	<g>
		<g>
			<g>
				<path fill="#454545" d="M33.31149,45.7661c-3.4394,0-9.68549-9.0039-9.68549-13.9629c0-5.7021,2.625-7.8222,9.68549-7.8222
					c7.06151,0,9.68751,2.1201,9.68751,7.8222C42.999,36.7622,36.752,45.7661,33.31149,45.7661z M33.31149,24.981
					c-7.3017,0-8.68549,2.3974-8.68549,6.8222c0,4.6934,5.99409,12.9629,8.68549,12.9629c2.6924,0,8.68751-8.2695,8.68751-12.9629
					C41.999,27.3784,40.61429,24.981,33.31149,24.981z"/>
			</g>
			<g>
				<path fill="#454545" d="M33.31049,24.981c-0.2509,0-0.4677-0.1895-0.496-0.4458c-0.0079-0.0699-0.6963-7.0503,5.4531-10.7388
					c0.23441-0.1406,0.5429-0.0659,0.6855,0.1714c0.1426,0.2368,0.0655,0.5439-0.1718,0.686
					c-5.6055,3.3628-4.9795,9.709-4.9727,9.773c0.0303,0.2744-0.168,0.521-0.4424,0.5512
					C33.34769,24.98,33.32909,24.981,33.31049,24.981z"/>
			</g>
			<g>
				<path fill="#454545" d="M33.31149,24.981c-2.1601,0-4.1806-1.0586-5.5429-2.9043c-0.1641-0.2222-0.1172-0.5352,0.10541-0.6993
					c0.22069-0.1635,0.53619-0.1167,0.69919,0.1055c1.1719,1.5874,2.8985,2.4981,4.7383,2.4981
					c1.8418,0,3.5684-0.9102,4.7364-2.4976c0.164-0.2227,0.4785-0.2676,0.6982-0.1064c0.2227,0.1635,0.2705,0.4765,0.1064,0.6992
					C37.49409,23.9224,35.47459,24.981,33.31149,24.981z"/>
			</g>
		</g>
		<g>
			<g>
				<path fill="#454545" d="M33.31349,30.4146c-0.2774,0-0.502,0.2246-0.502,0.5009v1.3037c0,0.2764,0.2246,0.501,0.502,0.501
					c0.2754,0,0.5-0.2246,0.5-0.501v-1.3037C33.81349,30.6392,33.58889,30.4146,33.31349,30.4146z"/>
			</g>
			<g>
				<path fill="#454545" d="M33.31349,35.0327c-0.2774,0-0.502,0.2246-0.502,0.502v1.3027c0,0.2773,0.2246,0.502,0.502,0.502
					c0.2754,0,0.5-0.2247,0.5-0.502v-1.3027C33.81349,35.2573,33.58889,35.0327,33.31349,35.0327z"/>
			</g>
			<g>
				<path fill="#454545" d="M33.31349,39.6519c-0.2774,0-0.502,0.2246-0.502,0.5019v1.3027c0,0.2774,0.2246,0.502,0.502,0.502
					c0.2754,0,0.5-0.2246,0.5-0.502v-1.3027C33.81349,39.8765,33.58889,39.6519,33.31349,39.6519z"/>
			</g>
			<g>
				<path fill="#454545" d="M36.52249,27.8179c-0.2618-0.0918-0.5489,0.0429-0.6407,0.3047l-0.4375,1.2275
					c-0.0937,0.2607,0.043,0.5478,0.3028,0.6406c0.2617,0.0928,0.5488-0.0429,0.6406-0.3037l0.4375-1.2285
					C36.91889,28.1987,36.78219,27.9116,36.52249,27.8179z"/>
			</g>
			<g>
				<path fill="#454545" d="M36.52249,32.6851c-0.2618-0.0938-0.5489,0.0429-0.6407,0.3027l-0.4375,1.2285
					c-0.0937,0.2608,0.043,0.5469,0.3028,0.6406c0.2617,0.0918,0.5488-0.0429,0.6406-0.3047l0.4375-1.2265
					C36.91889,33.064,36.78219,32.7769,36.52249,32.6851z"/>
			</g>
			<g>
				<path fill="#454545" d="M36.52249,37.5503c-0.2618-0.0938-0.5489,0.043-0.6407,0.3037l-0.4375,1.2275
					c-0.0937,0.2618,0.043,0.5479,0.3028,0.6407c0.2617,0.0937,0.5488-0.043,0.6406-0.3037l0.4375-1.2276
					C36.91889,37.9292,36.78219,37.6431,36.52249,37.5503z"/>
			</g>
			<g>
				<path fill="#454545" d="M39.34279,29.6372c-0.25979-0.0928-0.5469,0.043-0.6387,0.3037l-0.4375,1.2285
					c-0.0937,0.2598,0.043,0.5469,0.3027,0.6397c0.2618,0.0928,0.5469-0.043,0.64071-0.3037l0.43749-1.2276
					C39.74119,30.0171,39.60449,29.73,39.34279,29.6372z"/>
			</g>
			<g>
				<path fill="#454545" d="M39.34279,34.5034c-0.25979-0.0937-0.5469,0.043-0.6387,0.3037l-0.4375,1.2276
					c-0.0937,0.2607,0.043,0.5468,0.3027,0.6406c0.2618,0.0928,0.5469-0.043,0.64071-0.3047l0.43749-1.2266
					C39.74119,34.8823,39.60449,34.5962,39.34279,34.5034z"/>
			</g>
			<g>
				<path fill="#454545" d="M30.74319,28.1226c-0.0918-0.2618-0.3789-0.3965-0.6387-0.3047
					c-0.2617,0.0937-0.3984,0.3808-0.3047,0.6406l0.4375,1.2285c0.0938,0.2608,0.3789,0.3965,0.6406,0.3037
					c0.2617-0.0928,0.3965-0.3799,0.3028-0.6406L30.74319,28.1226z"/>
			</g>
			<g>
				<path fill="#454545" d="M30.74319,32.9878c-0.0918-0.2598-0.3789-0.3965-0.6387-0.3027
					c-0.2617,0.0918-0.3984,0.3789-0.3047,0.6406l0.4375,1.2265c0.0938,0.2618,0.3789,0.3965,0.6406,0.3047
					c0.2617-0.0937,0.3965-0.3798,0.3028-0.6406L30.74319,32.9878z"/>
			</g>
			<g>
				<path fill="#454545" d="M30.74319,37.854c-0.0918-0.2607-0.3789-0.3975-0.6387-0.3037
					c-0.2617,0.0928-0.3984,0.3789-0.3047,0.6406l0.4375,1.2276c0.0938,0.2607,0.3789,0.3974,0.6406,0.3037
					c0.2617-0.0928,0.3965-0.3789,0.3028-0.6407L30.74319,37.854z"/>
			</g>
			<g>
				<path fill="#454545" d="M27.92289,29.9409c-0.0938-0.2607-0.38089-0.3965-0.6407-0.3037
					c-0.2617,0.0928-0.3965,0.3799-0.3047,0.6406l0.43751,1.2276c0.09379,0.2607,0.37889,0.3965,0.64069,0.3037
					c0.2617-0.0928,0.3964-0.3799,0.3047-0.6397L27.92289,29.9409z"/>
			</g>
			<g>
				<path fill="#454545" d="M27.92289,34.8071c-0.0938-0.2607-0.38089-0.3974-0.6407-0.3037
					c-0.2617,0.0928-0.3965,0.3789-0.3047,0.6406l0.43751,1.2266c0.09379,0.2617,0.37889,0.3975,0.64069,0.3047
					c0.2617-0.0938,0.3964-0.3799,0.3047-0.6406L27.92289,34.8071z"/>
			</g>
		</g>
	</g>
</g>
</svg>
